<?xml version="1.0" encoding="utf-8"?>
<!-- Generator: Adobe Illustrator 22.0.1, SVG Export Plug-In . SVG Version: 6.00 Build 0)  -->
<svg version="1.1" id="Layer_2_1_" xmlns="http://www.w3.org/2000/svg" xmlns:xlink="http://www.w3.org/1999/xlink" x="0px" y="0px"
	 viewBox="0 0 2400 148" style="enable-background:new 0 0 2400 148;" xml:space="preserve">
<style type="text/css">
	.st0{fill:#FFFFFF;}
	.st1{fill:none;stroke:#FFFFFF;stroke-width:2;}
	.st2{fill:none;stroke:#FFFFFF;}
	.st3{fill:none;stroke:#FFFFFF;stroke-linecap:round;stroke-linejoin:round;}
	.st4{fill:none;stroke:#FFFFFF;stroke-miterlimit:10;}
	.st5{fill:none;stroke:#FFFFFF;stroke-width:2;stroke-linejoin:bevel;}
</style>
<g id="Group-5" transform="translate(641.435333, 22.069500)">
	<path id="Shape" class="st0" d="M182.9,126.2h-71.7V57.5h71.7V126.2z M114.3,123h65.3V60.7h-65.3V123z"/>
	<polygon id="Path" class="st0" points="116,57.5 178,57.5 178,60.7 116,60.7 	"/>
	<polygon id="Path_1_" class="st0" points="177,60.4 147,38.2 117,60.4 115.1,57.8 147,34.2 178.9,57.8 	"/>
	<polygon id="Path_2_" class="st0" points="138.9,70 142.1,70 142.1,80.9 138.9,80.9 	"/>
	<polygon id="Path_3_" class="st0" points="124.1,70 127.3,70 127.3,80.9 124.1,80.9 	"/>
	<polygon id="Path_4_" class="st0" points="153.6,70 156.8,70 156.8,80.9 153.6,80.9 	"/>
	<polygon id="Path_5_" class="st0" points="85.5,70 88.7,70 88.7,80.9 85.5,80.9 	"/>
	<polygon id="Path_6_" class="st0" points="68.5,70 71.7,70 71.7,80.9 68.5,80.9 	"/>
	<polygon id="Path_7_" class="st0" points="102.4,69.8 105.6,69.8 105.6,80.7 102.4,80.7 	"/>
	<polygon id="Path_8_" class="st0" points="166.7,70 169.9,70 169.9,80.9 166.7,80.9 	"/>
	<polygon id="Path_9_" class="st0" points="3.1,70 6.3,70 6.3,80.9 3.1,80.9 	"/>
	<polygon id="Path_10_" class="st0" points="-11.7,70 -8.5,70 -8.5,80.9 -11.7,80.9 	"/>
	<polygon id="Path_11_" class="st0" points="17.8,70 21,70 21,80.9 17.8,80.9 	"/>
	<polygon id="Path_12_" class="st0" points="30.9,70 34.1,70 34.1,80.9 30.9,80.9 	"/>
	<polygon id="Path_13_" class="st0" points="45.6,70 48.8,70 48.8,80.9 45.6,80.9 	"/>
	<polygon id="Path_14_" class="st0" points="112.8,126.2 58.8,126.2 58.8,46.8 130.6,46.8 130.6,50 62,50 62,123 112.8,123 	"/>
	<path id="Path_15_" class="st0" d="M104.5,48.7h-3.2V19.9c0-5.5-4.5-10.1-10.1-10.1s-10.1,4.5-10.1,10.1v28.4H78V19.8
		c0-7.3,6-13.2,13.3-13.2s13.2,5.9,13.2,13.2V48.7z"/>
	<path id="Path_16_" class="st0" d="M85.4,11.8l-2.6-1.9C84,8.3,84,4.4,84,2v-9.1l0.3-0.4c3.3-5,4.8-7.3,7.1-7.3
		c2.3,0,3.8,2.3,7.1,7.3l0.3,0.4v9.3c0,2.3,0,5.8,0.9,7.6l-2.8,1.5c-1.3-2.5-1.3-6.3-1.3-9v-8.4c-1.8-2.8-3.5-5.3-4.2-5.5
		C90.6-11.5,89-9,87.2-6.2V2C87.1,5.1,87.2,9.4,85.4,11.8L85.4,11.8z"/>
	<path id="Shape_1_" class="st0" d="M62,126.2h-86.4V36.3H62V126.2z M-21.2,123h80V39.4h-80V123z"/>
	<polygon id="Path_17_" class="st0" points="-22.8,50.1 60.4,50.1 60.4,53.2 -22.8,53.2 	"/>
	<path id="Path_18_" class="st0" d="M102.3,28.3c-7.6-3.4-14.8-3.4-22,0l-1.4-2.9c7.9-3.7,16.2-3.7,24.6,0L102.3,28.3z"/>
	<path id="Shape_2_" class="st0" d="M48.9,39.4H33.7V17.3h15.2V39.4z M36.9,36.3h8.8V20.5h-8.8V36.3z"/>
</g>
<polygon id="Path_19_" class="st0" points="745.5,117.4 748.3,117.4 748.3,127 745.5,127 "/>
<polygon id="Path_21_" class="st0" points="788.8,117.4 791.6,117.4 791.6,127 788.8,127 "/>
<polygon id="Path_22_" class="st0" points="775.8,117.4 778.6,117.4 778.6,127 775.8,127 "/>
<polygon id="Path_23_" class="st0" points="801.8,117.4 804.6,117.4 804.6,127 801.8,127 "/>
<polygon id="Path_24_" class="st0" points="813.4,117.4 816.2,117.4 816.2,127 813.4,127 "/>
<polygon id="Path_25_" class="st0" points="668.7,118 671.5,118 671.5,127.6 668.7,127.6 "/>
<polygon id="Path_26_" class="st0" points="655.7,118 658.5,118 658.5,127.6 655.7,127.6 "/>
<polygon id="Path_27_" class="st0" points="681.7,118 684.5,118 684.5,127.6 681.7,127.6 "/>
<polygon id="Path_28_" class="st0" points="693.3,118 696.1,118 696.1,127.6 693.3,127.6 "/>
<polygon id="Path_29_" class="st0" points="706.3,118 709.1,118 709.1,127.6 706.3,127.6 "/>
<path id="Shape_3_" class="st0" d="M737.8,148.2h-17.5v-19.8c0-4.7,3.8-8.6,8.6-8.6h0.4c4.7,0,8.5,3.8,8.5,8.6V148.2z M723.1,145.4
	h11.8v-17c0-3.2-2.6-5.7-5.7-5.7h-0.4c-3.2,0-5.7,2.6-5.7,5.7L723.1,145.4z"/>
<path id="Shape_4_" class="st0" d="M541.9,130.2c-0.5,0.1-0.8,0.5-0.8,1c0,0.2-0.2,4.9,2.6,7.3c1.4,1.2,3.3,1.5,4.8,1.5
	s2.7-0.3,2.8-0.3c0.5-0.1,0.8-0.5,0.8-1c0-0.2,0.2-4.9-2.6-7.3C546.7,129,542.1,130.1,541.9,130.2L541.9,130.2z M545.1,136.7
	c-1.4-1.1-1.7-3.3-1.8-4.5c1.2-0.2,3.4-0.3,4.8,0.9c1.4,1.1,1.7,3.3,1.8,4.5C548.7,137.8,546.5,137.9,545.1,136.7z"/>
<path id="Shape_5_" class="st0" d="M525.6,125.1c-0.1-0.5-0.5-0.8-1-0.8c-0.2,0-4.9-0.2-7.3,2.6c-2.3,2.9-1.2,7.4-1.1,7.6
	c0.1,0.5,0.5,0.8,1,0.8c0,0,0.2,0,0.4,0c1.2,0,4.9-0.2,6.9-2.6C526.8,129.9,525.6,125.3,525.6,125.1L525.6,125.1z M522.7,131.3
	c-1.1,1.4-3.3,1.7-4.5,1.8c-0.2-1.2-0.3-3.4,0.9-4.8c1.1-1.4,3.3-1.7,4.5-1.8C523.7,127.7,523.8,129.9,522.7,131.3z"/>
<path id="Shape_6_" class="st0" d="M495.7,130.8c-2.9-2.3-7.4-1.2-7.6-1.1c-0.5,0.1-0.8,0.5-0.8,1c0,0.2-0.2,4.9,2.6,7.3
	c1.4,1.2,3.3,1.5,4.8,1.5s2.7-0.3,2.8-0.3c0.5-0.1,0.8-0.5,0.8-1C498.4,137.9,498.6,133.2,495.7,130.8L495.7,130.8z M491.3,136.2
	c-1.4-1.1-1.7-3.3-1.8-4.5c1.2-0.2,3.4-0.3,4.8,0.9c1.4,1.1,1.7,3.3,1.8,4.5C494.9,137.3,492.7,137.4,491.3,136.2z"/>
<path id="Shape_7_" class="st0" d="M551.3,146h-16.5v-22c9.8-0.6,17.6-8.7,17.6-18.6c0-10.3-8.4-18.7-18.8-18.7
	c-5.3,0-10.2,2.2-13.6,5.8c-0.4-0.7-0.9-1.4-1.5-2c0.9-1.8,1.3-3.8,1.3-5.8c0-3.4-1.3-6.7-3.6-9.3c0.7-1.5,1-3.1,1-4.7
	c0-7.1-6.6-12.9-14.6-12.9c-8.1,0-14.6,5.8-14.6,12.9c0,1.6,0.3,3.2,1,4.7c-2.3,2.7-3.6,5.9-3.6,9.3c0,2,0.4,3.9,1.3,5.8
	c-2.6,3-4,6.6-4.1,10.3c-1.8-0.8-3.8-1.2-5.8-1.2c-8.2,0-14.9,6.6-14.9,14.8c0,7.8,6.1,14.2,13.8,14.7V146H463
	c-0.6,0-1.1,0.5-1.1,1.1s0.5,1.1,1.1,1.1h88.2c0.6,0,1.1-0.5,1.1-1.1C552.4,146.5,551.9,146,551.3,146L551.3,146z M503.8,118.9
	c4.9-0.3,9.6-2.1,13-5.2c2.9,5.8,8.8,9.9,15.7,10.2v22h-28.6L503.8,118.9z M533.6,88.9c9.1,0,16.5,7.4,16.5,16.4
	c0,8.7-6.8,15.7-15.3,16.3v-10l6.5-6.2c0.4-0.4,0.5-1.2,0-1.6c-0.4-0.5-1.1-0.5-1.6,0l-4.9,4.7V102c0-0.6-0.5-1.1-1.1-1.1
	s-1.1,0.5-1.1,1.1v12.2l-5-4.8c-0.5-0.4-1.2-0.4-1.6,0c-0.4,0.4-0.4,1.2,0,1.6l6.5,6.3v4.3c-8.6-0.6-15.4-7.7-15.4-16.3
	C517.1,96.3,524.5,88.9,533.6,88.9L533.6,88.9z M489,91.5c0.3-0.4,0.4-0.9,0.2-1.3c-0.9-1.7-1.4-3.6-1.4-5.4c0-3,1.3-6,3.5-8.3
	c0.3-0.4,0.4-0.9,0.2-1.3c-0.7-1.4-1.1-2.9-1.1-4.4c0-5.9,5.5-10.6,12.3-10.6S515,65,515,70.8c0,1.5-0.4,3-1.1,4.4
	c-0.2,0.4-0.2,1,0.2,1.3c2.3,2.3,3.5,5.3,3.5,8.3c0,1.9-0.5,3.7-1.4,5.4c-0.2,0.4-0.2,1,0.2,1.3c0.8,0.9,1.5,1.8,2.1,2.8
	c-2.3,3.1-3.7,6.9-3.7,11c0,2.2,0.4,4.2,1.1,6.1c-3.1,3-7.4,4.8-12.1,5.1l-0.1-39.9c0-0.6-0.5-1.1-1.1-1.1l0,0
	c-0.6,0-1.1,0.5-1.1,1.1l0.1,39.9c-9.3-0.5-16.7-7.2-16.7-15.3C484.9,97.7,486.3,94.2,489,91.5L489,91.5z M464.2,114.4
	c0-6.9,5.7-12.5,12.6-12.5c2,0,4,0.5,5.8,1.4h0.1c0.6,4.4,3,8.3,6.6,11.1c0,6.5-5.1,11.8-11.4,12.4v-15.1c0-0.6-0.5-1.1-1.1-1.1
	s-1.1,0.5-1.1,1.1v8.9l-3.4-3.3c-0.5-0.4-1.2-0.4-1.6,0s-0.4,1.2,0,1.6l5,4.8v3C469.3,126.3,464.2,120.9,464.2,114.4L464.2,114.4z
	 M478,129.1c7.1-0.6,12.9-6.1,13.6-13.2c2.9,1.7,6.3,2.7,10,2.9l0.1,27.1H478V129.1z"/>
<path id="Shape-Copy" class="st0" d="M2074.6,146h-16.5v-22c9.8-0.6,17.6-8.7,17.6-18.6c0-10.3-8.4-18.7-18.8-18.7
	c-5.3,0-10.2,2.2-13.6,5.8c-0.4-0.7-0.9-1.4-1.5-2c0.9-1.8,1.3-3.8,1.3-5.8c0-3.4-1.3-6.7-3.6-9.3c0.7-1.5,1-3.1,1-4.7
	c0-7.1-6.6-12.9-14.6-12.9c-8.1,0-14.6,5.8-14.6,12.9c0,1.6,0.3,3.2,1,4.7c-2.3,2.7-3.6,5.9-3.6,9.3c0,2,0.4,3.9,1.3,5.8
	c-2.6,3-4,6.6-4.1,10.3c-1.8-0.8-3.8-1.2-5.8-1.2c-8.2,0-14.9,6.6-14.9,14.8c0,7.8,6.1,14.2,13.8,14.7V146h-12.7
	c-0.6,0-1.1,0.5-1.1,1.1s0.5,1.1,1.1,1.1h88.2c0.6,0,1.1-0.5,1.1-1.1C2075.8,146.5,2075.2,146,2074.6,146L2074.6,146z M2027.2,118.9
	c4.9-0.3,9.6-2.1,13-5.2c2.9,5.8,8.8,9.9,15.7,10.2v22h-28.6L2027.2,118.9z M2057,88.9c9.1,0,16.5,7.4,16.5,16.4
	c0,8.7-6.8,15.7-15.3,16.3v-10l6.5-6.2c0.4-0.4,0.5-1.2,0-1.6c-0.4-0.5-1.1-0.5-1.6,0l-4.9,4.7V102c0-0.6-0.5-1.1-1.1-1.1
	s-1.1,0.5-1.1,1.1v12.2l-5-4.8c-0.4-0.4-1.2-0.4-1.6,0c-0.4,0.4-0.4,1.2,0,1.6l6.5,6.3v4.3c-8.6-0.6-15.4-7.7-15.4-16.3
	C2040.4,96.3,2047.9,88.9,2057,88.9L2057,88.9z M2012.3,91.5c0.3-0.4,0.4-0.9,0.2-1.3c-0.9-1.7-1.4-3.6-1.4-5.4c0-3,1.3-6,3.5-8.3
	c0.3-0.4,0.4-0.9,0.2-1.3c-0.7-1.4-1.1-2.9-1.1-4.4c0-5.9,5.5-10.6,12.3-10.6s12.3,4.8,12.3,10.6c0,1.5-0.4,3-1.1,4.4
	c-0.2,0.4-0.2,1,0.2,1.3c2.3,2.3,3.5,5.3,3.5,8.3c0,1.9-0.5,3.7-1.4,5.4c-0.2,0.4-0.2,1,0.2,1.3c0.8,0.9,1.5,1.8,2.1,2.8
	c-2.3,3.1-3.7,6.9-3.7,11c0,2.2,0.4,4.2,1.1,6.1c-3.1,3-7.4,4.8-12.1,5.1l-0.1-39.9c0-0.6-0.5-1.1-1.1-1.1l0,0
	c-0.6,0-1.1,0.5-1.1,1.1l0.1,39.9c-9.3-0.5-16.7-7.2-16.7-15.3C2008.2,97.7,2009.7,94.2,2012.3,91.5L2012.3,91.5z M1987.6,114.4
	c0-6.9,5.7-12.5,12.6-12.5c2,0,4,0.5,5.8,1.4h0.1c0.6,4.4,3,8.3,6.6,11.1c0,6.5-5.1,11.8-11.4,12.4v-15.1c0-0.6-0.5-1.1-1.1-1.1
	s-1.1,0.5-1.1,1.1v8.9l-3.4-3.3c-0.5-0.4-1.2-0.4-1.6,0s-0.4,1.2,0,1.6l5,4.8v3C1992.6,126.3,1987.6,120.9,1987.6,114.4
	L1987.6,114.4z M2001.3,129.1c7.1-0.6,12.9-6.1,13.6-13.2c2.9,1.7,6.3,2.7,10,2.9l0.1,27.1h-23.7V129.1z"/>
<g id="Shape-2" transform="translate(71.000000, 5.316500)">
	<path id="Shape_8_" class="st0" d="M98,142.6H-46.4v-2h10V30.5h35.2v49.9h21.9V10.7h28.6v88.7h3.6V49.5H88v91.1h10V142.6z
		 M63.7,140.7h22.4V51.5H54.8v47.9h8.9v4.4h5V114h-5v5.4h5v10.2h-5L63.7,140.7z M59,140.7h2.7v-39.1H32.1v39.1h13.4v-15.5h13.6
		L59,140.7z M47.4,140.7H57v-13.5h-9.5L47.4,140.7z M-1.2,140.7h31.3V82.4H-1.2V140.7z M-34.5,140.7h31.3V32.5h-31.3V140.7z
		 M63.7,127.8h3v-6.3h-3L63.7,127.8z M63.7,112.1h3v-6.3h-3L63.7,112.1z M42.6,99.4h4.6V12.6H22.6v67.8h9.5v19h2v-4.3h2v4.3h4.7
		v-4.3h2v4.3H42.6z M23.8,136.9h-2v-11.7h2V136.9z M15.4,136.9h-2v-11.7h2V136.9z M7,136.9H5v-11.7h2V136.9z M42.7,133.9h-7.1v-2
		h7.1V133.9z M-6,132.9h-25.2v-2H-6V132.9z M82.7,129.7H72.4v-10.3h10.3C82.7,119.4,82.7,129.7,82.7,129.7z M74.5,127.8h6.3v-6.3
		h-6.3V127.8z M42.8,127.2h-7.1v-2h7.1V127.2z M-6,123.7h-25.2v-2H-6V123.7z M58.1,120.5H35.7v-2H58L58.1,120.5z M23.9,118h-2v-11.7
		h2V118z M15.4,118h-2v-11.7h2V118z M7,118H5v-11.7h2V118z M-6,114.6h-25.2v-2H-6V114.6z M82.7,114H72.4v-10.2h10.3
		C82.7,103.8,82.7,114,82.7,114z M74.5,112.1h6.3v-6.3h-6.3V112.1z M58.1,113.9H35.6v-2H58L58.1,113.9z M58.1,107.3H35.6v-2H58
		L58.1,107.3z M-5.9,105.5h-25.3v-2H-6L-5.9,105.5z M23.9,99.2h-2V87.4h2V99.2z M15.5,99.2h-2V87.4h2V99.2z M7.1,99.2h-2V87.4h2
		V99.2z M82.7,98.4H72.4V88.1h10.3C82.7,88.1,82.7,98.4,82.7,98.4z M74.5,96.4h6.3v-6.3h-6.3V96.4z M68.7,98.4H58.4V88.1h10.3
		L68.7,98.4z M60.5,96.4h6.3v-6.3h-6.3C60.5,90.1,60.5,96.4,60.5,96.4z M-6,96.4h-25.2v-2H-6V96.4z M42.6,90.3h-2V84h2V90.3z
		 M36,90.3h-2V84h2V90.3z M-6,87.3h-25.2v-2H-6V87.3z M82.7,82.7H72.4V72.5h10.3C82.7,72.5,82.7,82.7,82.7,82.7z M74.5,80.8h6.3
		v-6.3h-6.3V80.8z M68.7,82.7H58.4V72.5h10.3L68.7,82.7z M60.5,80.8h6.3v-6.3h-6.3C60.5,74.5,60.5,80.8,60.5,80.8z M42.7,79.2h-2
		v-6.3h2V79.2z M36,79.2h-2v-6.3h2V79.2z M29.4,79.2h-2v-6.3h2V79.2z M-6,78.2h-25.3v-2H-6V78.2z M-6,69.1h-25.3v-2H-6V69.1z
		 M42.7,68.1h-2v-6.3h2V68.1z M36,68.1h-2v-6.3h2V68.1z M29.4,68.1h-2v-6.3h2V68.1z M82.7,67.1H72.4V56.8h10.3
		C82.7,56.8,82.7,67.1,82.7,67.1z M74.5,65.1h6.3v-6.3h-6.3V65.1z M68.7,67.1H58.4V56.8h10.3L68.7,67.1z M60.5,65.1h6.3v-6.3h-6.3
		C60.5,58.8,60.5,65.1,60.5,65.1z M-6,60.1h-25.2v-2H-6V60.1z M42.6,57.1h-2v-6.3h2V57.1z M36,57.1h-2v-6.3h2V57.1z M29.3,57.1h-2
		v-6.3h2V57.1z M-6,50.9h-25.2v-2H-6V50.9z M42.6,45.9h-2v-6.2h2V45.9z M36,45.9h-2v-6.2h2V45.9z M29.3,45.9h-2v-6.2h2V45.9z
		 M-6,41.8h-25.2v-2H-6V41.8z M42.7,34.8h-2v-6.2h2V34.8z M36,34.8h-2v-6.2h2V34.8z M29.4,34.8h-2v-6.2h2V34.8z M42.7,23.7h-2v-6.2
		h2V23.7z M36,23.7h-2v-6.2h2V23.7z M29.4,23.7h-2v-6.2h2V23.7z"/>
</g>
<path id="Path_64_" class="st1" d="M2456,147.2"/>
<path id="Path_63_" class="st1" d="M-45.7,147.2"/>
<path id="Shape_9_" class="st0" d="M215.3,47.3c-5.3,0-10.2,8.5-14.7,25.2c-3.3,12.4-5.6,26.8-5.6,32.3c0,10.7,8.4,19.5,18.9,20.2
	v21.1c0,0.8,0.6,1.4,1.4,1.4c0.8,0,1.4-0.6,1.4-1.4V125c10.5-0.7,18.9-9.5,18.9-20.2c0-5.6-2.2-19.9-5.6-32.3
	C225.5,55.8,220.6,47.3,215.3,47.3L215.3,47.3z M216.7,122.2V112l1.3-0.7l3.4-2c0.7-0.4,0.9-1.2,0.5-1.9c-0.4-0.7-1.2-0.9-1.9-0.5
	l-3.4,1.9v-3.7c0-0.8-0.6-1.4-1.4-1.4c-0.8,0-1.4,0.6-1.4,1.4v9.3l-7.7-4.4c-0.7-0.4-1.5-0.2-1.9,0.5s-0.2,1.5,0.5,1.9l9.1,5.2v4.5
	c-9-0.7-16.1-8.2-16.1-17.4c0-4.7,1.9-18.3,5.5-31.6c1.9-7,3.9-12.6,5.9-16.6c2.1-4.2,4.3-6.5,6.1-6.5s4,2.3,6.1,6.5
	c2,4,4,9.6,5.9,16.6c3.6,13.3,5.5,26.9,5.5,31.6C232.8,114,225.7,121.5,216.7,122.2L216.7,122.2z"/>
<path id="Shape_10_" class="st0" d="M1303.5,47.3c-5.3,0-10.2,8.5-14.7,25.2c-3.3,12.4-5.6,26.8-5.6,32.3c0,10.7,8.3,19.5,18.9,20.2
	v21.1c0,0.8,0.6,1.4,1.4,1.4s1.4-0.6,1.4-1.4V125c10.5-0.7,18.9-9.5,18.9-20.2c0-5.6-2.2-19.9-5.6-32.3
	C1313.7,55.8,1308.8,47.3,1303.5,47.3L1303.5,47.3z M1304.9,122.2V112l1.3-0.7l3.4-2c0.7-0.4,0.9-1.2,0.5-1.9
	c-0.4-0.7-1.2-0.9-1.9-0.5l-3.4,1.9v-3.7c0-0.8-0.6-1.4-1.4-1.4s-1.4,0.6-1.4,1.4v9.3l-7.7-4.4c-0.7-0.4-1.5-0.2-1.9,0.5
	s-0.2,1.5,0.5,1.9l9.1,5.2v4.5c-9-0.7-16.1-8.2-16.1-17.4c0-4.7,1.9-18.3,5.5-31.6c1.9-7,3.9-12.6,5.9-16.6c2.1-4.2,4.3-6.5,6.1-6.5
	c1.8,0,4,2.3,6.1,6.5c2,4,4,9.6,5.9,16.6c3.6,13.3,5.5,26.9,5.5,31.6C1321,114,1313.9,121.5,1304.9,122.2L1304.9,122.2z"/>
<path id="Shape_11_" class="st0" d="M963.4,74.8c0.3-1.2,0.5-2.4,0.5-3.7c0-7.3-6-13.3-13.4-13.3c-6.9,0-12.6,5.2-13.3,12
	c-4.6,2.2-7.5,6.8-7.5,12c0,2.5,0.7,5,2.1,7.1c-1.4,2.5-2.1,5.3-2.1,8.1c0,9.5,7.7,17.2,17.2,17.2c0.8,0,1.5-0.1,2.3-0.2v32.1h-42.8
	V114c0.8,0.1,1.6,0.2,2.3,0.2c9.5,0,17.2-7.7,17.2-17.2c0-2.8-0.7-5.6-2.1-8.1c1.4-2.1,2.1-4.6,2.1-7.1c0-5.1-2.9-9.7-7.5-12
	c-0.7-6.8-6.4-12-13.3-12c-7.4,0-13.4,6-13.4,13.3c0,1.2,0.2,2.5,0.5,3.7c-5.9,2.4-9.8,8.1-9.8,14.6c0,3.8,1.4,7.5,3.9,10.4
	c-0.1,0.6-0.1,1.2-0.1,1.8c0,7.3,6,13.3,13.4,13.3c1.5,0,3-0.3,4.4-0.8v32h-20.4c-0.6,0-1.1,0.5-1.1,1.1s0.5,1.1,1.1,1.1h88.2
	c0.6,0,1.1-0.5,1.1-1.1s-0.5-1.1-1.1-1.1h-20.4v-32c1.4,0.5,2.9,0.8,4.4,0.8c7.4,0,13.4-6,13.4-13.3c0-0.6,0-1.2-0.1-1.8
	c2.5-2.9,3.9-6.6,3.9-10.4C973.2,82.9,969.3,77.2,963.4,74.8L963.4,74.8z M899.9,112.6c-6.1,0-11.1-5-11.1-11c0-0.6,0.1-1.3,0.2-1.9
	c0.1-0.4,0-0.7-0.3-1c-2.4-2.5-3.7-5.8-3.7-9.3c0-5.8,3.7-11,9.3-12.8c0.3-0.1,0.5-0.3,0.7-0.6c0.1-0.3,0.1-0.6,0-0.9
	c-0.5-1.3-0.7-2.6-0.7-3.9c0-6.1,5-11,11.1-11c5.9,0,10.8,4.6,11.1,10.5c0,0.4,0.3,0.8,0.7,1c4.1,1.7,6.7,5.7,6.7,10.2
	c0,2.3-0.7,4.5-2.1,6.4c-0.3,0.4-0.3,0.9-0.1,1.2c1.4,2.3,2.1,4.9,2.1,7.6c0,8.2-6.7,14.9-15,14.9c-0.8,0-1.5-0.1-2.3-0.2v-4.4
	c7-0.6,12.6-6.5,12.6-13.6c0-0.6-0.5-1.1-1.1-1.1s-1.1,0.5-1.1,1.1c0,5.9-4.5,10.8-10.3,11.3V89.6c4.5-0.6,8-4.4,8-9
	c0-0.6-0.5-1.1-1.1-1.1s-1.1,0.5-1.1,1.1c0,3.4-2.5,6.2-5.7,6.7V75.9c0-0.6-0.5-1.1-1.1-1.1s-1.1,0.5-1.1,1.1v5.5
	c-2.1-0.5-3.8-2.4-3.8-4.7c0-0.6-0.5-1.1-1.1-1.1s-1.1,0.5-1.1,1.1c0,3.5,2.6,6.5,6,7v13.9c-5.8-0.6-10.3-5.4-10.3-11.3
	c0-0.6-0.5-1.1-1.1-1.1s-1.1,0.5-1.1,1.1c0,7.2,5.6,13,12.6,13.6v11.7C902.9,112.2,901.4,112.6,899.9,112.6L899.9,112.6z
	 M967.2,98.6c-0.2,0.3-0.4,0.6-0.3,1c0.1,0.7,0.2,1.3,0.2,1.9c0,6.1-5,11-11.1,11c-1.5,0-3-0.3-4.4-0.9V99.9
	c7-0.6,12.6-6.5,12.6-13.6c0-0.6-0.5-1.1-1.1-1.1s-1.1,0.5-1.1,1.1c0,5.9-4.5,10.8-10.3,11.3V83.7c3.4-0.5,6-3.5,6-7
	c0-0.6-0.5-1.1-1.1-1.1s-1.1,0.5-1.1,1.1c0,2.3-1.6,4.2-3.8,4.7v-5.5c0-0.6-0.5-1.1-1.1-1.1s-1.1,0.5-1.1,1.1v11.3
	c-3.2-0.5-5.7-3.3-5.7-6.7c0-0.6-0.5-1.1-1.1-1.1s-1.1,0.5-1.1,1.1c0,4.6,3.5,8.4,8,9V105c-5.8-0.6-10.3-5.4-10.3-11.3
	c0-0.6-0.5-1.1-1.1-1.1s-1.1,0.5-1.1,1.1c0,7.2,5.6,13,12.6,13.6v4.4c-0.8,0.1-1.6,0.2-2.3,0.2c-8.3,0-15-6.7-15-14.9
	c0-2.7,0.7-5.3,2.1-7.6c0.2-0.4,0.2-0.9-0.1-1.2c-1.3-1.9-2.1-4.1-2.1-6.4c0-4.4,2.6-8.4,6.7-10.2c0.4-0.2,0.7-0.6,0.7-1
	c0.3-5.9,5.1-10.5,11.1-10.5c6.1,0,11.1,5,11.1,11c0,1.3-0.2,2.7-0.7,3.9c-0.1,0.3-0.1,0.6,0,0.9s0.4,0.5,0.7,0.6
	c5.6,1.8,9.3,7,9.3,12.8C971,92.8,969.6,96.1,967.2,98.6L967.2,98.6z"/>
<path id="Shape_12_" class="st0" d="M886.2,129.5c0.1,0,0.9,0.1,1.9,0.1c1.8,0,4.4-0.3,6.1-2.1c2.8-2.8,2-7.8,1.9-8
	c-0.1-0.5-0.5-0.8-0.9-0.9c-0.2,0-5.3-0.9-8,1.9c-2.8,2.8-2,7.8-1.9,8C885.4,129,885.8,129.4,886.2,129.5z M888.8,122.1
	c1.4-1.4,3.9-1.4,5.2-1.4c0.1,1.3,0,3.8-1.4,5.2c-1.4,1.4-3.9,1.4-5.2,1.4C887.4,126,887.4,123.5,888.8,122.1z"/>
<path id="Shape_13_" class="st0" d="M918.5,119.9c0.1,0.5,0.5,0.8,0.9,0.9c0.1,0,0.9,0.1,1.9,0.1c1.8,0,4.4-0.3,6.1-2.1
	c2.8-2.8,2-7.8,1.9-8c-0.1-0.5-0.5-0.8-0.9-0.9c-0.2,0-5.3-0.9-8,1.9C917.7,114.7,918.5,119.7,918.5,119.9L918.5,119.9z
	 M922.1,113.5c1.4-1.4,3.9-1.4,5.2-1.4c0.1,1.3,0,3.8-1.4,5.2c-1.4,1.4-3.9,1.5-5.2,1.4C920.6,117.4,920.7,114.9,922.1,113.5
	L922.1,113.5z"/>
<path id="Shape_14_" class="st0" d="M955.6,127.5c-0.5,0.1-0.8,0.5-0.9,0.9c0,0.2-0.9,5.3,1.9,8c1.7,1.7,4.3,2.1,6.1,2.1
	c1.1,0,1.9-0.1,1.9-0.1c0.5-0.1,0.8-0.5,0.9-0.9c0-0.2,0.9-5.3-1.9-8C960.9,126.6,955.9,127.5,955.6,127.5z M963.4,136.2
	c-1.3,0.1-3.8,0-5.2-1.4s-1.4-3.9-1.4-5.2c1.3-0.1,3.8,0,5.2,1.4C963.5,132.4,963.5,134.9,963.4,136.2z"/>
<path id="Shape_15_" class="st0" d="M1724.1,74.8c0.4-1.2,0.5-2.4,0.5-3.7c0-7.3-6-13.3-13.4-13.3c-6.9,0-12.6,5.2-13.3,12
	c-4.6,2.2-7.5,6.8-7.5,12c0,2.5,0.7,5,2.1,7.1c-1.4,2.5-2.1,5.3-2.1,8.1c0,9.5,7.7,17.2,17.2,17.2c0.8,0,1.5-0.1,2.3-0.2v32h-42.8
	v-32c0.8,0.1,1.6,0.2,2.3,0.2c9.5,0,17.2-7.7,17.2-17.2c0-2.8-0.7-5.6-2.1-8.1c1.4-2.1,2.1-4.6,2.1-7.1c0-5.1-2.9-9.7-7.5-12
	c-0.7-6.8-6.4-12-13.3-12c-7.4,0-13.4,6-13.4,13.3c0,1.2,0.2,2.5,0.5,3.7c-5.9,2.4-9.8,8.1-9.8,14.6c0,3.8,1.4,7.5,3.9,10.4
	c-0.1,0.6-0.1,1.2-0.1,1.8c0,7.3,6,13.3,13.4,13.3c1.5,0,3-0.3,4.4-0.8v32h-20.4c-0.6,0-1.1,0.5-1.1,1.1s0.5,1.1,1.1,1.1h88.2
	c0.6,0,1.1-0.5,1.1-1.1s-0.5-1.1-1.1-1.1h-20.4v-32c1.4,0.5,2.9,0.8,4.4,0.8c7.4,0,13.4-6,13.4-13.3c0-0.6,0-1.2-0.1-1.8
	c2.5-2.9,3.9-6.6,3.9-10.4C1733.8,82.9,1730,77.2,1724.1,74.8L1724.1,74.8z M1660.5,112.6c-6.1,0-11.1-5-11.1-11
	c0-0.6,0.1-1.3,0.2-1.9c0.1-0.4,0-0.7-0.3-1c-2.4-2.5-3.7-5.8-3.7-9.3c0-5.8,3.7-11,9.3-12.8c0.3-0.1,0.5-0.3,0.7-0.6
	c0.1-0.3,0.1-0.6,0-0.9c-0.5-1.3-0.7-2.6-0.7-3.9c0-6.1,5-11,11.1-11c5.9,0,10.8,4.6,11.1,10.5c0,0.4,0.3,0.8,0.7,1
	c4.1,1.7,6.8,5.7,6.8,10.2c0,2.3-0.7,4.5-2.1,6.4c-0.3,0.4-0.3,0.9-0.1,1.2c1.4,2.3,2.1,4.9,2.1,7.6c0,8.2-6.7,14.9-15,14.9
	c-0.8,0-1.5-0.1-2.3-0.2v-4.4c7-0.6,12.6-6.5,12.6-13.6c0-0.6-0.5-1.1-1.1-1.1s-1.1,0.5-1.1,1.1c0,5.9-4.5,10.8-10.3,11.3V89.6
	c4.5-0.6,8-4.4,8-9c0-0.6-0.5-1.1-1.1-1.1s-1.1,0.5-1.1,1.1c0,3.4-2.5,6.2-5.7,6.7V75.9c0-0.6-0.5-1.1-1.1-1.1s-1.1,0.5-1.1,1.1v5.5
	c-2.1-0.5-3.8-2.4-3.8-4.7c0-0.6-0.5-1.1-1.1-1.1s-1.1,0.5-1.1,1.1c0,3.5,2.6,6.5,6,7v13.9c-5.8-0.6-10.3-5.4-10.3-11.3
	c0-0.6-0.5-1.1-1.1-1.1s-1.1,0.5-1.1,1.1c0,7.2,5.6,13,12.6,13.6v11.7C1663.5,112.2,1662,112.6,1660.5,112.6L1660.5,112.6z
	 M1727.9,98.6c-0.2,0.3-0.4,0.6-0.3,1c0.1,0.7,0.2,1.3,0.2,1.9c0,6.1-5,11-11.1,11c-1.5,0-3-0.3-4.4-0.9V99.9
	c7-0.6,12.6-6.5,12.6-13.6c0-0.6-0.5-1.1-1.1-1.1s-1.1,0.5-1.1,1.1c0,5.9-4.5,10.8-10.3,11.3V83.7c3.4-0.5,6-3.5,6-7
	c0-0.6-0.5-1.1-1.1-1.1s-1.1,0.5-1.1,1.1c0,2.3-1.6,4.2-3.8,4.7v-5.5c0-0.6-0.5-1.1-1.1-1.1s-1.1,0.5-1.1,1.1v11.3
	c-3.2-0.5-5.7-3.3-5.7-6.7c0-0.6-0.5-1.1-1.1-1.1s-1.1,0.5-1.1,1.1c0,4.6,3.5,8.4,8,9V105c-5.8-0.6-10.3-5.4-10.3-11.3
	c0-0.6-0.5-1.1-1.1-1.1s-1.1,0.5-1.1,1.1c0,7.2,5.6,13,12.6,13.6v4.4c-0.8,0.1-1.6,0.2-2.3,0.2c-8.3,0-15-6.7-15-14.9
	c0-2.7,0.7-5.3,2.1-7.6c0.2-0.4,0.2-0.9-0.1-1.2c-1.3-1.9-2.1-4.1-2.1-6.4c0-4.4,2.6-8.4,6.8-10.2c0.4-0.2,0.7-0.6,0.7-1
	c0.3-5.9,5.1-10.5,11.1-10.5c6.1,0,11.1,5,11.1,11c0,1.3-0.2,2.7-0.7,3.9c-0.1,0.3-0.1,0.6,0,0.9s0.4,0.5,0.7,0.6
	c5.6,1.8,9.3,7,9.3,12.8C1731.6,92.8,1730.3,96.1,1727.9,98.6L1727.9,98.6z"/>
<path id="Shape_16_" class="st0" d="M1650.8,129.8c0.1,0,0.8,0.1,1.9,0.1c1.8,0,4.4-0.3,6.1-2.1c2.8-2.8,1.9-7.8,1.9-8
	c-0.1-0.5-0.5-0.8-0.9-0.9c-0.2,0-5.3-0.9-8,1.9c-2.8,2.8-2,7.8-1.9,8C1649.9,129.4,1650.3,129.8,1650.8,129.8z M1653.4,122.5
	c1.4-1.4,3.9-1.4,5.2-1.4c0.1,1.3,0,3.8-1.4,5.2c-1.4,1.4-3.9,1.4-5.2,1.4C1651.9,126.4,1652,123.9,1653.4,122.5z"/>
<path id="Shape_17_" class="st0" d="M1683.1,120.3c0.1,0.5,0.5,0.8,0.9,0.9c0.1,0,0.9,0.1,1.9,0.1c1.8,0,4.4-0.3,6.1-2.1
	c2.8-2.8,2-7.8,1.9-8c-0.1-0.5-0.5-0.8-0.9-0.9c-0.2,0-5.3-0.9-8,1.9C1682.2,115,1683,120.1,1683.1,120.3L1683.1,120.3z
	 M1686.6,113.9c1.4-1.4,3.9-1.4,5.2-1.4c0.1,1.3,0,3.8-1.4,5.2c-1.4,1.4-3.9,1.5-5.2,1.4C1685.1,117.8,1685.2,115.3,1686.6,113.9
	L1686.6,113.9z"/>
<path id="Shape_18_" class="st0" d="M1720.2,127.9c-0.5,0.1-0.8,0.5-0.9,0.9c0,0.2-0.9,5.3,1.9,8c1.7,1.7,4.3,2.1,6.1,2.1
	c1.1,0,1.9-0.1,1.9-0.1c0.5-0.1,0.8-0.5,0.9-0.9c0-0.2,0.8-5.3-1.9-8C1725.4,127,1720.4,127.8,1720.2,127.9z M1728,136.6
	c-1.3,0.1-3.8,0-5.2-1.4c-1.4-1.4-1.4-3.9-1.4-5.2c1.3-0.1,3.8,0,5.2,1.4C1728,132.8,1728,135.3,1728,136.6z"/>
<g id="Group-3_1_" transform="translate(969.240500, 29.000000)">
	<g id="Group_4_" transform="translate(63.000000, 0.000000)">
		<path id="Shape_27_" class="st0" d="M70.9,114.4c-0.3,0.5-0.2,1.1,0.3,1.4s1.1,0.2,1.4-0.3L95.9,80l19.8,13l-6,9.1
			c-0.3,0.4-0.1,1.1,0.3,1.4l23.5,15.9c-16.1-2.9,16.2,0.7,16.1,0l-0.7-15.1l23.3-7.6c0.7-0.2,0.9-1.4,0.2-1.8L146.9,78l4.9-7.4
			c0.3-0.4,0.2-1.1-0.3-1.4l-33.8-22.3l1.6-2.5c0.3-0.5,0.2-1.1-0.3-1.4c-0.5-0.3-1.1-0.2-1.4,0.3L70.9,114.4z M116.6,48.6l33,21.7
			L130,100L97,78.3L116.6,48.6z M145.8,79.7l23.9,15.7l-22.1,7.2c-0.4,0.1-0.7,0.6-0.7,1l0.7,13.4h-6.1h-7.9L112,102.3l5.4-8.3
			l12.4,8.2c0.4,0.3,1.1,0.2,1.4-0.3L145.8,79.7z"/>
		<path id="Path_62_" class="st0" d="M116.3,75.8c-0.8-0.5-2.7-1-3.5-1c3.1-2.8,9.6-8.3,11.8-7.9c2.2,0.4,2.3,2.3,2.3,2.3l0.8,5.6
			l4.2-3.7c-0.9-0.7-2.3-2.7-1.1-4.8c1-1.8,4.3-1.3,6.4-0.6c0.3,0,0.5,0.1,0.7,0.3c-0.2-0.1-0.5-0.2-0.7-0.3c-0.6-0.1-1.4,0.1-1.9,1
			c-1,1.7,5.6,4.7,6.3,3.8c0.5-0.7,0.3-1.8,0.1-2.3c1.1,1.6,2.9,5.1,1.6,6.8c-1.3,1.7-4.2,0.6-5.6-0.2c-4.1,3.4-12.6,10.3-13.8,10.5
			c-1.4,0.3-4.4-0.5-6.8-1.8c-2.5-1.3-3.3-5.1-5.5-4.7c-3.6,0.8-0.1,3.8-0.1,3.8c-4.1-1.8-7.9-1.6-7.9-1.6s4.2-6.4,6.6-8
			c0,0-1.2,1.8-0.5,2.4c0.8,0.8,2.5,0.4,4.5,0.9c1.7,0.4,3.7,2,4.6,2.8l2.9,0.1l0.4-4.1l-3.3,2.4C118.7,77.6,117.5,76.5,116.3,75.8z
			"/>
		<path id="Path_61_" class="st2" d="M112.8,74.8c0.8,0,2.7,0.5,3.5,1c1.2,0.7,2.4,1.9,2.4,1.9l3.3-2.4l-0.4,4.1l-2.9-0.1
			c-0.8-0.7-2.9-2.3-4.6-2.8c-2.1-0.5-3.8-0.1-4.5-0.9c-0.6-0.6,0.5-2.4,0.5-2.4c-2.4,1.5-6.6,8-6.6,8s3.8-0.1,7.9,1.6
			c0,0-3.6-3.1,0.1-3.8c2.2-0.5,3,3.4,5.5,4.7c2.4,1.3,5.4,2,6.8,1.8c1.1-0.2,9.6-7.1,13.8-10.5c1.3,0.8,4.3,1.9,5.6,0.2
			c1.3-1.7-0.5-5.2-1.6-6.8c0.2,0.4,0.4,1.5-0.1,2.3c-0.7,0.9-7.3-2.1-6.3-3.8c0.8-1.4,2.1-1.1,2.6-0.7c-1.9-0.7-5.9-1.7-7.1,0.4
			c-1.2,2.1,0.3,4,1.1,4.8l-4.2,3.7l-0.8-5.6c0,0,0-1.8-2.3-2.3C122.4,66.5,115.9,72,112.8,74.8z"/>
	</g>
	<g id="Group_3_">
		<path id="Shape_26_" class="st0" d="M164.1,114.4c0.3,0.5,0.2,1.1-0.3,1.4s-1.1,0.2-1.4-0.3L139.1,80l-19.8,13l6,9.1
			c0.3,0.4,0.1,1.1-0.3,1.4l-19.8,13l-4.7,1.7H85v-1.8l1.1-12.2l-23.3-7.6c-0.7-0.2-0.9-1.4-0.2-1.8L88.1,78l-4.9-7.4
			c-0.3-0.4-0.1-1.1,0.3-1.4l33.8-22.3l-1.6-2.5c-0.3-0.5-0.2-1.1,0.3-1.4c0.5-0.3,1.1-0.2,1.4,0.3L164.1,114.4z M118.5,48.6
			l-33,21.7L105,100l33-21.7L118.5,48.6z M89.2,79.7L65.4,95.4l22.1,7.2c0.4,0.1,0.7,0.6,0.7,1l-0.9,12.8l5.2,0.1h8.5l22.2-14.1
			l-5.4-8.3l-12.4,8.2c-0.4,0.3-1.1,0.2-1.4-0.3L89.2,79.7z"/>
		<path id="Path_60_" class="st3" d="M121.7,61.7c0,0.3-0.1,0.6-0.2,0.9c-0.1,0.8-0.3,1.7-0.3,2.6c0,0.4-0.2,0.3-0.4,0.6
			c-0.2,0.2-0.1,0.4-0.3,0.6c-0.4,0.5-0.8,0.1-1.3,0.4c-0.3,0.2,0,0.9-0.2,1.3c-0.1,0.3-0.6,0.7-0.2,1.2c0.3,0.4,0.8-0.1,1.2,0
			c0.4,0,0.8,0.4,1.2,0.1c0-0.1,0-0.2,0-0.3c0.8,0.7,0.6,1.3,0.6,2.4c0,0.6,0.1,1.1,0,1.7c0,0.5-0.1,1.1-0.2,1.6
			c-0.1,1-0.1,2.1-0.1,3.2c0,0.4,0,0.9-0.1,1.3c-0.1,0.6-0.5,1-0.8,1.5c-0.3,0.6-0.5,1.2-0.7,1.9c-0.2,0.7-0.8,1.2-1.3,1.7
			c-0.2,0.2-0.4,0.5-0.6,0.6c-0.5,0.3-0.5,0.2-0.7,0.7c-0.2,0.4-0.5,0.6-0.7,0.9s-0.1,0.4-0.2,0.7c-0.2,0.7-0.6,1.3-0.9,1.9
			c-0.2,0.5-0.5,1-0.8,1.5s-1,0.7-1.2,0.1c-0.2-0.4,0-0.9,0.2-1.3c0.2-0.5,0.5-0.9,0.4-1.4c-0.2-0.7-0.7-0.6-1.3-0.7
			c-0.2,0-0.5-0.2-0.7-0.1c-0.3,0-0.2,0.2-0.4,0.3c-0.7,0.4-0.3-0.4-0.7-0.8c-0.2-0.2-0.7-0.1-1-0.2c-0.2-0.1-0.3-0.3-0.5-0.4
			c-0.1-0.1-0.2-0.2-0.4-0.2c-0.1,0-0.1,0.2-0.2,0.2c-0.3-0.1-0.2-0.2-0.3-0.4c-0.2-0.2-0.7-0.4-0.9-0.6c-0.2-0.3-0.2-0.6-0.5-0.8
			c-0.2-0.1-0.5,0.2-0.6-0.3c0-0.2,0.1-0.8,0.1-1c0.6-0.2-0.7-0.6-0.5-1c0.7-0.2,0.5-0.7,0.6-1.2c0.1-0.4,0.2-0.9,0.6-1.2
			c0.4-0.3,0.6-0.6,1.2-0.7s1.2-0.6,1.8-0.6c0-0.2,0-0.4-0.1-0.6c0-0.4-0.1-0.3,0.2-0.6c0.4-0.6,0.5-0.7,1.1-0.9
			c0.4-0.1,0.4-0.3,0.6-0.6c0.2-0.2,0.5-0.2,0.8-0.5c0.2-0.2,0.3-0.4,0.6-0.5c0.2-0.1,0.5,0.1,0.6-0.1c0.4-0.6-1.1-1.4-1.4-1.7
			c-0.3-0.3-0.5-0.7-0.7-0.9c-0.1-0.1-0.2,0-0.3-0.1c-0.1-0.1,0-0.2-0.1-0.3c-0.2-0.2-0.2-0.3-0.5-0.4s-0.7,0.1-0.8-0.2
			c-0.2-0.2-0.1-0.8-0.1-1.1c-0.1-0.4-0.7-1.7-1.1-0.7c-0.6-0.4-0.7-2.3-0.3-2.9c0.5,0.4,0.8-0.8,0.7-1.2c0.2,0,0.3-0.1,0.5-0.1
			c0-0.4-0.2-0.6-0.4-0.9c-0.2-0.3-0.2-0.7-0.5-0.9c0.1-0.4,0.3-0.4,0.6-0.6c0.3-0.2,0.4-0.3,0.6-0.7c0.1-0.2,0-0.2,0.1-0.4
			c0.1-0.1,0.3-0.2,0.4-0.3c0.3-0.2,0.4-0.4,0.5-0.8c0.1-0.6,0.2-1.4,0.6-1.8c0.3-0.3,1.2-0.8,1.6-0.7L121.7,61.7z"/>
	</g>
</g>
<g id="Group-3" transform="translate(969.240500, 29.000000)">
	<g id="Group" transform="translate(63.000000, 0.000000)">
		<path id="Shape_19_" class="st0" d="M70.9,114.4c-0.3,0.5-0.2,1.1,0.3,1.4s1.1,0.2,1.4-0.3L95.9,80l19.8,13l-6,9.1
			c-0.3,0.4-0.1,1.1,0.3,1.4l23.5,15.9c-16.1-2.9,16.2,0.7,16.1,0l-0.7-15.1l23.3-7.6c0.7-0.2,0.9-1.4,0.2-1.8L146.9,78l4.9-7.4
			c0.3-0.4,0.2-1.1-0.3-1.4l-33.8-22.3l1.6-2.5c0.3-0.5,0.2-1.1-0.3-1.4c-0.5-0.3-1.1-0.2-1.4,0.3L70.9,114.4z M116.6,48.6l33,21.7
			L130,100L97,78.3L116.6,48.6z M145.8,79.7l23.9,15.7l-22.1,7.2c-0.4,0.1-0.7,0.6-0.7,1l0.7,13.4h-6.1h-7.9L112,102.3l5.4-8.3
			l12.4,8.2c0.4,0.3,1.1,0.2,1.4-0.3L145.8,79.7z"/>
		<path id="Path_31_" class="st0" d="M116.3,75.8c-0.8-0.5-2.7-1-3.5-1c3.1-2.8,9.6-8.3,11.8-7.9c2.2,0.4,2.3,2.3,2.3,2.3l0.8,5.6
			l4.2-3.7c-0.9-0.7-2.3-2.7-1.1-4.8c1-1.8,4.3-1.3,6.4-0.6c0.3,0,0.5,0.1,0.7,0.3c-0.2-0.1-0.5-0.2-0.7-0.3c-0.6-0.1-1.4,0.1-1.9,1
			c-1,1.7,5.6,4.7,6.3,3.8c0.5-0.7,0.3-1.8,0.1-2.3c1.1,1.6,2.9,5.1,1.6,6.8c-1.3,1.7-4.2,0.6-5.6-0.2c-4.1,3.4-12.6,10.3-13.8,10.5
			c-1.4,0.3-4.4-0.5-6.8-1.8c-2.5-1.3-3.3-5.1-5.5-4.7c-3.6,0.8-0.1,3.8-0.1,3.8c-4.1-1.8-7.9-1.6-7.9-1.6s4.2-6.4,6.6-8
			c0,0-1.2,1.8-0.5,2.4c0.8,0.8,2.5,0.4,4.5,0.9c1.7,0.4,3.7,2,4.6,2.8l2.9,0.1l0.4-4.1l-3.3,2.4C118.7,77.6,117.5,76.5,116.3,75.8z
			"/>
		<path id="Path_32_" class="st2" d="M112.8,74.8c0.8,0,2.7,0.5,3.5,1c1.2,0.7,2.4,1.9,2.4,1.9l3.3-2.4l-0.4,4.1l-2.9-0.1
			c-0.8-0.7-2.9-2.3-4.6-2.8c-2.1-0.5-3.8-0.1-4.5-0.9c-0.6-0.6,0.5-2.4,0.5-2.4c-2.4,1.5-6.6,8-6.6,8s3.8-0.1,7.9,1.6
			c0,0-3.6-3.1,0.1-3.8c2.2-0.5,3,3.4,5.5,4.7c2.4,1.3,5.4,2,6.8,1.8c1.1-0.2,9.6-7.1,13.8-10.5c1.3,0.8,4.3,1.9,5.6,0.2
			c1.3-1.7-0.5-5.2-1.6-6.8c0.2,0.4,0.4,1.5-0.1,2.3c-0.7,0.9-7.3-2.1-6.3-3.8c0.8-1.4,2.1-1.1,2.6-0.7c-1.9-0.7-5.9-1.7-7.1,0.4
			c-1.2,2.1,0.3,4,1.1,4.8l-4.2,3.7l-0.8-5.6c0,0,0-1.8-2.3-2.3C122.4,66.5,115.9,72,112.8,74.8z"/>
	</g>
	<g id="Group_1_">
		<path id="Shape_20_" class="st0" d="M164.1,114.4c0.3,0.5,0.2,1.1-0.3,1.4s-1.1,0.2-1.4-0.3L139.1,80l-19.8,13l6,9.1
			c0.3,0.4,0.1,1.1-0.3,1.4l-19.8,13l-4.7,1.7H85v-1.8l1.1-12.2l-23.3-7.6c-0.7-0.2-0.9-1.4-0.2-1.8L88.1,78l-4.9-7.4
			c-0.3-0.4-0.1-1.1,0.3-1.4l33.8-22.3l-1.6-2.5c-0.3-0.5-0.2-1.1,0.3-1.4c0.5-0.3,1.1-0.2,1.4,0.3L164.1,114.4z M118.5,48.6
			l-33,21.7L105,100l33-21.7L118.5,48.6z M89.2,79.7L65.4,95.4l22.1,7.2c0.4,0.1,0.7,0.6,0.7,1l-0.9,12.8l5.2,0.1h8.5l22.2-14.1
			l-5.4-8.3l-12.4,8.2c-0.4,0.3-1.1,0.2-1.4-0.3L89.2,79.7z"/>
		<path id="Path_33_" class="st4" d="M121.7,61.7c0,0.3-0.1,0.6-0.2,0.9c-0.1,0.8-0.3,1.7-0.3,2.6c0,0.4-0.2,0.3-0.4,0.6
			c-0.2,0.2-0.1,0.4-0.3,0.6c-0.4,0.5-0.8,0.1-1.3,0.4c-0.3,0.2,0,0.9-0.2,1.3c-0.1,0.3-0.6,0.7-0.2,1.2c0.3,0.4,0.8-0.1,1.2,0
			c0.4,0,0.8,0.4,1.2,0.1c0-0.1,0-0.2,0-0.3c0.8,0.7,0.6,1.3,0.6,2.4c0,0.6,0.1,1.1,0,1.7c0,0.5-0.1,1.1-0.2,1.6
			c-0.1,1-0.1,2.1-0.1,3.2c0,0.4,0,0.9-0.1,1.3c-0.1,0.6-0.5,1-0.8,1.5c-0.3,0.6-0.5,1.2-0.7,1.9c-0.2,0.7-0.8,1.2-1.3,1.7
			c-0.2,0.2-0.4,0.5-0.6,0.6c-0.5,0.3-0.5,0.2-0.7,0.7c-0.2,0.4-0.5,0.6-0.7,0.9s-0.1,0.4-0.2,0.7c-0.2,0.7-0.6,1.3-0.9,1.9
			c-0.2,0.5-0.5,1-0.8,1.5s-1,0.7-1.2,0.1c-0.2-0.4,0-0.9,0.2-1.3c0.2-0.5,0.5-0.9,0.4-1.4c-0.2-0.7-0.7-0.6-1.3-0.7
			c-0.2,0-0.5-0.2-0.7-0.1c-0.3,0-0.2,0.2-0.4,0.3c-0.7,0.4-0.3-0.4-0.7-0.8c-0.2-0.2-0.7-0.1-1-0.2c-0.2-0.1-0.3-0.3-0.5-0.4
			c-0.1-0.1-0.2-0.2-0.4-0.2c-0.1,0-0.1,0.2-0.2,0.2c-0.3-0.1-0.2-0.2-0.3-0.4c-0.2-0.2-0.7-0.4-0.9-0.6c-0.2-0.3-0.2-0.6-0.5-0.8
			c-0.2-0.1-0.5,0.2-0.6-0.3c0-0.2,0.1-0.8,0.1-1c0.6-0.2-0.7-0.6-0.5-1c0.7-0.2,0.5-0.7,0.6-1.2c0.1-0.4,0.2-0.9,0.6-1.2
			c0.4-0.3,0.6-0.6,1.2-0.7s1.2-0.6,1.8-0.6c0-0.2,0-0.4-0.1-0.6c0-0.4-0.1-0.3,0.2-0.6c0.4-0.6,0.5-0.7,1.1-0.9
			c0.4-0.1,0.4-0.3,0.6-0.6c0.2-0.2,0.5-0.2,0.8-0.5c0.2-0.2,0.3-0.4,0.6-0.5c0.2-0.1,0.5,0.1,0.6-0.1c0.4-0.6-1.1-1.4-1.4-1.7
			c-0.3-0.3-0.5-0.7-0.7-0.9c-0.1-0.1-0.2,0-0.3-0.1c-0.1-0.1,0-0.2-0.1-0.3c-0.2-0.2-0.2-0.3-0.5-0.4s-0.7,0.1-0.8-0.2
			c-0.2-0.2-0.1-0.8-0.1-1.1c-0.1-0.4-0.7-1.7-1.1-0.7c-0.6-0.4-0.7-2.3-0.3-2.9c0.5,0.4,0.8-0.8,0.7-1.2c0.2,0,0.3-0.1,0.5-0.1
			c0-0.4-0.2-0.6-0.4-0.9c-0.2-0.3-0.2-0.7-0.5-0.9c0.1-0.4,0.3-0.4,0.6-0.6c0.3-0.2,0.4-0.3,0.6-0.7c0.1-0.2,0-0.2,0.1-0.4
			c0.1-0.1,0.3-0.2,0.4-0.3c0.3-0.2,0.4-0.4,0.5-0.8c0.1-0.6,0.2-1.4,0.6-1.8c0.3-0.3,1.2-0.8,1.6-0.7L121.7,61.7z"/>
	</g>
</g>
<path id="Shape_21_" class="st0" d="M1504.3,124.7v-18.4c-0.2-0.6-0.3-1.3-0.3-1.9c-0.2-1-0.2-2.1-0.2-3.1c0.1-1.5,0.2-2.9,0.3-4.2
	c-4.6-2.5-9.1-5.8-13.5-9.9c-8,7.8-17.5,15-27.8,21.5v15h20c0.5,0,0.9,0.4,0.9,0.9v5.2c0,0.5-0.4,0.9-0.9,0.9h-2.5v3.7
	C1488.5,134.4,1497.5,128.7,1504.3,124.7L1504.3,124.7z M1550.7,72.4l3.1,8.2c0.2,0.5-0.1,1-0.5,1.2l-4.5,1.7
	c-0.1,0-0.2,0.1-0.3,0.1c-0.4,7.1-6.6,14.2-22.5,18h-0.1c-0.4,0.1-0.8,0.1-1.3,0.2c-5.7,0.8-11.8-0.5-17.9-3.3c-0.1,1-0.2,2-0.2,3
	c0,0.9,0,1.7,0.1,2.6s0.3,1.8,0.5,2.7c1.2,4.8,3.1,8.9,5.9,12.4c1-0.7,2.1-1.4,3.1-2c6.3-4.2,12.1-8,17.4-10.3
	c15.5-6.7,25.7-8.5,31.8-7.5c3.2,0.6,5.4,1.9,6.7,3.7c1.3,1.9,1.8,4.2,1.5,6.7c-0.5,3.8-2.7,8.2-6,12.1v22.9h15.2
	c0.8,0,1.5,0.6,1.5,1.4c0,0.8-0.7,1.4-1.5,1.4h-217.1c-0.8,0-1.5-0.6-1.5-1.4c0-0.8,0.7-1.4,1.5-1.4h22v-6.5
	c-4.9-0.3-8.4-1.6-10.6-3.5c-2.1-1.9-3.1-4.3-3.1-7.1c0-2.6,1-5.5,2.8-8.5c4.4-7.3,13.8-15.4,26.8-21.1
	c3.7-12.2,12.6-25.5,20.5-37.4c0.6-0.8,1.1-1.7,1.7-2.5c-5.4-0.9-9.8-2.1-13.3-3.5c-4.3-1.8-7.3-3.9-9.2-6.3c-2-2.5-2.9-5.3-2.6-8.2
	c0.1-1.3,0.4-2.6,1-3.9c2.8-6.7,9.2-10.7,16.1-12.5c3.3-0.9,6.7-1.2,9.9-1.1c3.2,0.1,6.2,0.7,8.5,1.6c2.9,1.2,4.9,3,5.5,5.4
	c1.6,6-3.8,15.4-10.9,26.4c1,0.1,2.1,0.2,3.1,0.3c16.3,1.5,22,5.3,21.5,10.3c-0.8,8.9-24.1,20.5-38.7,27.8
	c-5.3,2.6-9.4,4.7-10.6,5.6c-0.3,1.2-0.6,2.5-0.9,3.7c-1.8,9.7,0.7,18.3,11.6,24.2c8.5-3.1,17.3-6.8,25.9-11.1
	c6.3-3.1,12.5-6.6,18.4-10.3V30.7c0-0.4-0.1-0.8-0.2-1.2c-0.9-4.4,0.6-8.5,3.7-12c2.8-3.1,6.8-5.8,11.4-7.6s9.6-2.7,14.6-2.6
	c7.3,0.2,14.3,2.9,18.6,8.9l0.1,0.1v0.1c2.3,4.6,3.8,9.1,4.7,13.6c3.6,18.3-3.9,35.6-17.4,50.9c-1.2,1.4-2.5,2.8-3.9,4.2
	c3.8,3.5,7.8,6.5,11.8,8.8c3.1-21.8,13.5-29.3,23.4-29.4v-0.1l1.5-4.5c0.2-0.5,0.7-0.7,1.1-0.6l8.4,2.7c0.5,0.2,0.7,0.7,0.6,1.1
	l-1,3l2.3-2.7c0.3-0.4,0.9-0.4,1.3-0.1l6.7,5.7c0.4,0.3,0.4,0.9,0.1,1.3l-2.1,2.4l2.6-1C1550,71.7,1550.5,71.9,1550.7,72.4
	L1550.7,72.4z M1551.8,80.4l-2.5-6.5l-2.8,1.1l0.4,1.1c0.5,1,0.8,2,1.1,3l0.9,2.4L1551.8,80.4L1551.8,80.4z M1547,70l-5.3-4.6
	l-1.9,2.3l5.3,4.6L1547,70z M1537.5,63.6l-6.6-2.2l-0.9,2.8l3.1,1c1,0.2,1.9,0.6,2.9,0.9l0.7,0.2L1537.5,63.6z M1461.1,123.7v-13.9
	c-5.5,3.4-11.3,6.6-17.1,9.5c-7.8,3.9-15.8,7.3-23.6,10.2c3.9,1.7,8.6,3.1,14.3,4.1c7.4,1.4,11,0.8,18.3,0.8h6.7v-3.7h-2.7
	c-0.5,0-0.9-0.4-0.9-0.9v-5.2c0-0.5,0.4-0.9,0.9-0.9L1461.1,123.7L1461.1,123.7z M1450.7,136.7c-0.1,0.2-0.2,0.3-0.3,0.4l-4.7,7.4
	l49.3-0.2l-10.4-8.1H1451L1450.7,136.7z M1447.9,137.6c-2.3,0.1-4.4,0-6.5-0.2c-2.5-0.2-4.9-0.6-7.2-1.1c-7.3-1.4-13.1-3.3-17.7-5.6
	c-9.3,3.3-18.3,5.7-26.5,7.3h-0.1h-0.2h-0.1v6.4h53.8L1447.9,137.6L1447.9,137.6z M1498.3,144.7h6.1V128c-5.4,3.1-11.1,6-17.1,8
	l10.9,8.5C1498.2,144.5,1498.2,144.6,1498.3,144.7L1498.3,144.7z M1482.1,125.5h-24.2v3.4h24.2V125.5z M1478.7,130.6h-17.2v3.7h17.2
	V130.6L1478.7,130.6z M1463,39.7v65.5c9.5-6,18.2-12.8,25.7-20c-0.8-0.8-1.5-1.6-2.3-2.4C1475.9,71.5,1467.1,56.1,1463,39.7
	L1463,39.7z M1565.9,144.7v-20.9c-0.1,0.1-0.1,0.1-0.2,0.2c-5.4,5.4-12.3,8.7-19.7,9.8c-7.6,1.2-15.7,0-22.7-3.3
	c-4.2-2-7.7-4.5-10.6-7.6c-2.1,1.4-4.3,2.8-6.6,4.1v17.7L1565.9,144.7L1565.9,144.7z M1506.1,123.6c1.6-1,3.1-2,4.7-3
	c-1.9-2.5-3.5-5.3-4.7-8.3V123.6z M1517.9,119.4c-0.9,0.6-1.8,1.2-2.7,1.8c2.6,2.7,5.7,4.9,9.4,6.6c6.5,3.1,13.9,4.1,21,3
	c6.7-1,13.1-4,18-9c3.9-4,6.7-8.7,7.2-12.6c0.2-1.8-0.1-3.4-0.9-4.6c-0.9-1.2-2.5-2.1-4.9-2.6c-5.6-1-15.2,0.8-30.1,7.3
	C1529.8,111.5,1524.1,115.3,1517.9,119.4L1517.9,119.4z M1529,67.5c-9.1-0.5-19.1,6.4-21.8,27.9c5.9,2.9,11.7,4.1,17.2,3.4
	c0.3,0,0.7-0.1,1-0.2c16.9-4,21.5-11.8,19.9-18.6c-0.8-3.2-2.9-6.3-5.8-8.5C1536.6,69.3,1532.9,67.7,1529,67.5L1529,67.5z
	 M1488.4,80.8c0.7,0.8,1.5,1.6,2.2,2.3c1.3-1.3,2.6-2.7,3.8-4.1c12.9-14.6,20.1-31.2,16.7-48.4c-0.8-4.2-2.3-8.5-4.4-12.8
	c-3.7-5.1-9.8-7.4-16.2-7.6c-4.5-0.1-9.2,0.8-13.4,2.4c-4.2,1.6-7.8,4-10.3,6.8s-3.7,6.1-3,9.6v0.1c0.2,1.4,0.4,2.8,0.7,4.1
	C1467.8,51.3,1477.1,68.5,1488.4,80.8L1488.4,80.8z M1389.6,135.3c7.3-1.4,15.3-3.6,23.6-6.4c-10.3-6.5-12.7-15.7-10.7-26
	c0.1-0.5,0.2-0.9,0.3-1.4c-11.3,5.4-19.5,12.5-23.3,18.9c-1.5,2.6-2.3,5-2.4,7.1c0,1.9,0.6,3.6,2.1,4.9
	C1381.1,134.2,1384.5,135.3,1389.6,135.3L1389.6,135.3z M1407.5,95.6c2.1-1.1,4.8-2.5,8-4.1c14.1-7,36.5-18.2,37.1-25.5
	c0.3-3.3-4.8-5.9-18.9-7.1c-1.6-0.1-3.1-0.3-4.6-0.5c-0.8,1.2-1.6,2.4-2.4,3.6C1419.4,72.9,1411.6,84.7,1407.5,95.6L1407.5,95.6z
	 M1413.6,51.8c3.6,1.5,8.3,2.7,14,3.6c7.1-10.8,12.7-20.1,11.3-25.2c-0.4-1.4-1.8-2.6-3.8-3.4s-4.7-1.3-7.5-1.4
	c-2.9-0.1-6,0.2-9.1,1c-6.1,1.6-11.8,5.1-14.1,10.8c-0.4,1.1-0.7,2.1-0.8,3.1c-0.2,2.2,0.4,4.2,2,6.2
	C1407.2,48.4,1409.8,50.3,1413.6,51.8L1413.6,51.8z"/>
<g id="Group-4" transform="translate(343.626167, 11.707400)">
	<path id="Shape_22_" class="st0" d="M34.7,32l0.9-3.5c0.2-0.9-0.3-1.8-1.2-2.1s-1.8,0.3-2.1,1.2l-0.9,3.5
		C10.5,26.6-9.8,36-16.3,53.6c-0.2,0.5-0.1,1.1,0.2,1.5c0.3,0.4,0.8,0.7,1.4,0.7c1.7,0,3.3,0.2,4.9,0.6C-3.1,58.1,2.3,63,3.8,69
		C4,69.8,4.4,70.2,5,70.4c0.6,0.2,1.2,0,1.6-0.5c4.1-4.4,10.6-4.2,15.9-3.1L15,96.5c-0.6,0.5-1.2,1-1.7,1.5
		c-1.3,1.3-2.3,2.2-4.3,2.2S6,99.3,4.7,98c-1.4-1.4-3.2-3.1-6.7-3.1s-5.2,1.7-6.7,3.1c-1.3,1.3-2.3,2.2-4.3,2.2s-3-0.9-4.3-2.2
		c-1.4-1.4-3.2-3.1-6.7-3.1s-5.2,1.7-6.7,3.1c-1.3,1.3-2.3,2.2-4.3,2.2c-2.1,0-3-0.9-4.3-2.2c-1.4-1.4-3.2-3.1-6.7-3.1
		c-3.4,0-5.2,1.7-6.7,3.1c-1.3,1.3-2.3,2.2-4.3,2.2c-2.1,0-3-0.9-4.3-2.2c-1.4-1.4-3.2-3.1-6.7-3.1c-0.9,0-1.7,0.8-1.7,1.7
		c0,0.9,0.8,1.7,1.7,1.7c2.1,0,3,0.9,4.3,2.2c1.4,1.4,3.2,3.1,6.7,3.1c3.4,0,5.2-1.7,6.7-3.1c1.3-1.3,2.3-2.2,4.3-2.2
		c2.1,0,3,0.9,4.3,2.2c1.4,1.4,3.2,3.1,6.7,3.1c3.4,0,5.2-1.7,6.7-3.1c1.3-1.3,2.3-2.2,4.3-2.2c2.1,0,3,0.9,4.3,2.2
		c1.4,1.4,3.2,3.1,6.7,3.1c3.4,0,5.2-1.7,6.7-3.1C-5,99.2-4,98.3-2,98.3s3,0.9,4.3,2.2c1.4,1.4,3.2,3.1,6.7,3.1c2,0,3.4-0.6,4.6-1.4
		L9,120.4c-45.7-1.9-76.3,7.9-76.7,8c-0.9,0.3-1.4,1.2-1.1,2.1c0.3,0.9,1.2,1.4,2.1,1.1c0.6-0.2,56.6-18.2,130.7,0
		c0.1,0,0.3,0,0.4,0c0.8,0,1.4-0.5,1.6-1.3c0.2-0.9-0.3-1.8-1.2-2c-18.8-4.6-36.5-6.9-52.4-7.8l5.5-21.8c0.6-0.2,1.2-0.4,2-0.4
		c2.1,0,3,0.9,4.3,2.2c1.4,1.4,3.2,3.1,6.7,3.1c3.4,0,5.2-1.7,6.6-3.1c1.3-1.3,2.2-2.2,4.3-2.2s3,0.9,4.3,2.2
		c1.4,1.4,3.2,3.1,6.7,3.1c3.4,0,5.2-1.7,6.7-3.1c1.3-1.3,2.3-2.2,4.3-2.2c0.9,0,1.7-0.8,1.7-1.7s-0.8-1.7-1.7-1.7
		c-3.4,0-5.2,1.7-6.7,3.1c-1.3,1.3-2.3,2.2-4.3,2.2c-2.1,0-3-0.9-4.3-2.2c-1.4-1.4-3.2-3.1-6.7-3.1c-3.4,0-5.2,1.7-6.6,3.1
		c-1.3,1.3-2.2,2.2-4.3,2.2s-3-0.9-4.3-2.2c-1.4-1.4-3.2-3.1-6.7-3.1c-0.4,0-0.7,0-1.1,0.1l7-27.4c5.2,1.6,11.1,4.7,12.5,10.6
		c0.1,0.6,0.6,1.1,1.2,1.2c0.1,0,0.3,0.1,0.4,0.1c0.5,0,0.9-0.2,1.3-0.6c4.2-4.6,11.3-6.5,18.2-4.8c1.4,0.4,2.9,0.9,4.3,1.6
		c0.5,0.2,1.1,0.2,1.5,0c0.5-0.3,0.8-0.7,0.9-1.3C68.8,56,55.4,37.9,34.7,32L34.7,32z M-9,53.4L-9,53.4c-1.1-0.3-2.1-0.5-3.2-0.6
		c6.1-13.2,21.8-20.8,38.4-19c-7,3.3-12.9,9.4-17.3,17.9c-2.2,4.2-3.5,8.2-4.4,11.2C1.6,58.3-3.2,54.8-9,53.4L-9,53.4z M25,63.9
		c-3-0.8-5.7-1.1-8.2-1.1c-3.6,0-6.8,0.8-9.4,2.3c1.9-7.2,8.3-25.5,24.8-30c12.4,11.7,9.3,30.8,7.5,38.1
		C37.1,68.8,32.1,65.7,25,63.9L25,63.9z M63,71.9c-0.9-0.4-1.9-0.7-2.8-0.9c-6-1.5-12.1-0.7-16.9,2.1c0.7-3,1.5-7.4,1.6-12.3
		c0.2-9.5-2.1-17.7-6.7-24C53.9,43,64,57.1,63,71.9L63,71.9z"/>
	<path id="Shape_23_" class="st0" d="M-41.6,37.3c7.2,0,13.1-5.9,13.1-13.1s-5.9-13.1-13.1-13.1S-54.7,17-54.7,24.2
		S-48.8,37.3-41.6,37.3z M-41.6,14.5c5.3,0,9.7,4.3,9.7,9.7s-4.3,9.7-9.7,9.7s-9.7-4.3-9.7-9.7C-51.3,18.9-47,14.5-41.6,14.5z"/>
	<path id="Path_34_" class="st0" d="M-41.6,5.4c0.9,0,1.7-0.8,1.7-1.7v-5.4c0-0.9-0.8-1.7-1.7-1.7s-1.7,0.8-1.7,1.7v5.4
		C-43.3,4.6-42.6,5.4-41.6,5.4z"/>
	<path id="Path_35_" class="st0" d="M-51.5,6.2c0.3,0.6,0.9,1,1.5,1c0.2,0,0.5,0,0.7-0.1c0.9-0.4,1.2-1.4,0.9-2.2l-2.2-5
		C-51-1-52-1.4-52.9-1s-1.2,1.4-0.9,2.2L-51.5,6.2z"/>
	<path id="Path_36_" class="st0" d="M-58,11.7c0.3,0.3,0.7,0.4,1.1,0.4c0.5,0,0.9-0.2,1.3-0.6c0.6-0.7,0.6-1.8-0.1-2.4l-4-3.6
		C-60.5,5-61.5,5-62.2,5.7c-0.6,0.7-0.6,1.8,0.1,2.4L-58,11.7z"/>
	<path id="Path_37_" class="st0" d="M-66.8,17.8l5.2,1.7c0.2,0.1,0.3,0.1,0.5,0.1c0.7,0,1.4-0.5,1.6-1.2c0.3-0.9-0.2-1.8-1.1-2.1
		l-5.2-1.7c-0.9-0.3-1.8,0.2-2.1,1.1S-67.7,17.5-66.8,17.8L-66.8,17.8z"/>
	<path id="Path_38_" class="st0" d="M-67.4,28.6c0.1,0,0.1,0,0.2,0l5.4-0.6c0.9-0.1,1.6-0.9,1.5-1.9c-0.1-0.9-0.9-1.6-1.9-1.5
		l-5.4,0.6c-0.9,0.1-1.6,0.9-1.5,1.9C-69,28-68.3,28.6-67.4,28.6L-67.4,28.6z"/>
	<path id="Path_39_" class="st0" d="M-57.9,33.6c-0.5-0.8-1.5-1.1-2.3-0.6l-4.7,2.7c-0.8,0.5-1.1,1.5-0.6,2.3
		c0.3,0.5,0.9,0.8,1.5,0.8c0.3,0,0.6-0.1,0.8-0.2l4.7-2.7C-57.7,35.5-57.4,34.4-57.9,33.6L-57.9,33.6z"/>
	<path id="Path_40_" class="st0" d="M-57.9,46.6c0.3,0.2,0.6,0.3,1,0.3c0.5,0,1-0.2,1.4-0.7l3.2-4.4c0.5-0.8,0.4-1.8-0.4-2.4
		c-0.8-0.5-1.8-0.4-2.4,0.4l-3.2,4.4C-58.8,45-58.6,46-57.9,46.6L-57.9,46.6z"/>
	<path id="Path_41_" class="st0" d="M-47.5,43.9l-1.1,5.3c-0.2,0.9,0.4,1.8,1.3,2c0.1,0,0.2,0,0.4,0c0.8,0,1.5-0.5,1.6-1.3l1.1-5.3
		c0.2-0.9-0.4-1.8-1.3-2C-46.4,42.4-47.3,43-47.5,43.9L-47.5,43.9z"/>
	<path id="Path_42_" class="st0" d="M-37.7,42.6c-0.9,0.2-1.5,1.1-1.3,2l1.1,5.3c0.2,0.8,0.9,1.3,1.6,1.3c0.1,0,0.2,0,0.4,0
		c0.9-0.2,1.5-1.1,1.3-2l-1.1-5.3C-35.9,43-36.8,42.4-37.7,42.6L-37.7,42.6z"/>
	<path id="Path_43_" class="st0" d="M-30.6,39.4c-0.8,0.5-0.9,1.6-0.4,2.4l3.2,4.4c0.3,0.5,0.8,0.7,1.4,0.7c0.3,0,0.7-0.1,1-0.3
		c0.8-0.5,0.9-1.6,0.4-2.4l-3.2-4.4C-28.7,39.1-29.8,38.9-30.6,39.4L-30.6,39.4z"/>
	<path id="Path_44_" class="st0" d="M-23,33c-0.8-0.5-1.8-0.2-2.3,0.6s-0.2,1.8,0.6,2.3l4.7,2.7c0.3,0.2,0.6,0.2,0.8,0.2
		c0.6,0,1.2-0.3,1.5-0.8c0.5-0.8,0.2-1.8-0.6-2.3L-23,33z"/>
	<path id="Path_45_" class="st0" d="M-21.1,24.7c-0.9-0.1-1.8,0.6-1.9,1.5s0.6,1.8,1.5,1.9l5.4,0.6c0.1,0,0.1,0,0.2,0
		c0.9,0,1.6-0.6,1.7-1.5c0.1-0.9-0.6-1.8-1.5-1.9L-21.1,24.7z"/>
	<path id="Path_46_" class="st0" d="M-23.7,18.4c0.2,0.7,0.9,1.2,1.6,1.2c0.2,0,0.3,0,0.5-0.1l5.2-1.7c0.9-0.3,1.4-1.2,1.1-2.1
		c-0.3-0.9-1.2-1.4-2.1-1.1l-5.2,1.7C-23.5,16.6-24,17.5-23.7,18.4L-23.7,18.4z"/>
	<path id="Path_47_" class="st0" d="M-26.4,12.2c0.4,0,0.8-0.1,1.1-0.4l4-3.6c0.7-0.6,0.8-1.7,0.1-2.4C-21.7,5-22.8,5-23.5,5.6
		l-4,3.6c-0.7,0.6-0.8,1.7-0.1,2.4C-27.3,12-26.8,12.2-26.4,12.2L-26.4,12.2z"/>
	<path id="Path_48_" class="st0" d="M-34,7c0.2,0.1,0.5,0.1,0.7,0.1c0.6,0,1.3-0.4,1.5-1l2.2-5c0.4-0.9,0-1.9-0.9-2.2
		c-0.9-0.4-1.8,0-2.2,0.9l-2.2,5C-35.2,5.7-34.8,6.6-34,7L-34,7z"/>
</g>
<g id="Group-6" transform="translate(1615.190833, 0.000000)">
	<g id="Group-2">
		<g id="Clipped" transform="translate(58.030000, 20.000000)">
			<g id="Path_49_">
			</g>
			<path id="Shape_24_" class="st0" d="M192.7,17.6v-2.9h-2.9v2.9H192.7z M223.1,17.6h2.9v-2.9h-2.9V17.6z M192.7,37.9h-2.9v2.9h2.9
				V37.9z M200.3,37.9h2.9V35h-2.9V37.9z M200.3,58.1V61h2.9v-2.9H200.3z M192.7,58.1v-2.9h-2.9v2.9H192.7z M192.7,78.4h-2.9v2.9
				h2.9V78.4z M200.3,78.4h2.9v-2.9h-2.9V78.4z M200.3,126.5h-2.9v2.9h2.9V126.5z M230.7,126.5v2.9h2.9v-2.9
				C233.6,126.5,230.7,126.5,230.7,126.5z M230.7,78.4h2.9v-2.9h-2.9V78.4z M223.1,78.4h-2.9v2.9h2.9V78.4z M223.1,58.1v-2.9h-2.9
				v2.9H223.1z M230.7,58.1V61h2.9v-2.9H230.7z M230.7,37.9h2.9V35h-2.9V37.9z M223.1,37.9h-2.9v2.9h2.9V37.9z M192.7,20.5h30.4
				v-5.8h-30.4V20.5z M195.6,37.9V17.6h-5.8v20.3H195.6z M200.3,35h-7.6v5.8h7.6V35z M203.2,58.1V37.9h-5.8v20.3h5.8V58.1z
				 M192.7,61h7.6v-5.8h-7.6V61z M195.6,78.4V58.1h-5.8v20.3C189.8,78.4,195.6,78.4,195.6,78.4z M200.3,75.5h-7.6v5.8h7.6V75.5z
				 M203.2,98.7V78.4h-5.8v20.3H203.2z M203.2,106.3v-7.6h-5.8v7.6H203.2z M203.2,118.9v-12.7h-5.8v12.7H203.2z M203.2,126.5v-7.6
				h-5.8v7.6H203.2z M230.7,123.6h-30.4v5.8h30.4V123.6z M227.8,118.9v7.6h5.8v-7.6H227.8z M227.8,106.3V119h5.8v-12.7H227.8z
				 M227.8,98.7v7.6h5.8v-7.6H227.8z M227.8,78.4v20.3h5.8V78.4H227.8z M223.1,81.3h7.6v-5.8h-7.6V81.3z M220.2,58.1v20.3h5.8V58.1
				H220.2z M230.7,55.2h-7.6V61h7.6V55.2z M227.8,37.9v20.3h5.8V37.9H227.8z M223.1,40.8h7.6V35h-7.6V40.8z M220.2,17.6v20.3h5.8
				V17.6H220.2z"/>
		</g>
		<path id="Path_50_" class="st1" d="M262.1,57.2h15.2"/>
		<path id="Path_51_" class="st1" d="M277.9,78.1h-15.2"/>
		<path id="Path_52_" class="st1" d="M277.9,97.1h-15.2"/>
		<path id="Shape_25_" class="st0" d="M209.1,28.3v116.8h35.1V28.3h-9.3V13.7h-17.1v14.6H209.1z M206.2,28.3L206.2,28.3v-1.7v-1.2
			l0,0v-0.1c0.2-6.4,1.3-12.8,3.5-18.9l0.7-1.9h31.8l0.7,1.8c2.6,6,4,12.5,4.2,19v0.1l0,0v0.4l0.1,2.5h-0.1V148h-40.9L206.2,28.3
			L206.2,28.3z M209.1,25.4h5.7V10.8h22.9v14.6h6.4c-0.2-6.2-1.5-12.3-3.9-18h-27.8C210.4,13.2,209.3,19.2,209.1,25.4z"/>
		<path id="Path_53_" class="st1" d="M219,47.1h15.8"/>
		<path id="Path_54_" class="st1" d="M219,50.3h15.8"/>
		<path id="Path_55_" class="st1" d="M219,79.4h15.8"/>
		<path id="Path_56_" class="st1" d="M219,83.2h15.8"/>
		<path id="Path_57_" class="st1" d="M219,88.3h15.8"/>
		<rect id="Rectangle" x="166" y="69.4" class="st1" width="35.1" height="75.6"/>
		<path id="Rectangle_1_" class="st0" d="M172.4,75.8h3.4v9.8h-3.4V75.8z M175.3,78.1v0.5h-2.4v-0.5l1.2-1.2L175.3,78.1z"/>
		<path id="Rectangle_2_" class="st0" d="M182.5,75.8h3.4v9.8h-3.4V75.8z M185.4,78.1v0.5H183v-0.5l1.2-1.2L185.4,78.1z"/>
		<path id="Rectangle_3_" class="st0" d="M191.4,75.8h3.4v9.8h-3.4V75.8z M194.3,78.1v0.5h-2.4v-0.5l1.2-1.2L194.3,78.1z"/>
		<path id="Rectangle_4_" class="st0" d="M172.4,93.5h3.4v11h-3.4V93.5z M175.3,95.9v0.5h-2.4v-0.5l1.2-1.2L175.3,95.9z"/>
		<path id="Rectangle_5_" class="st0" d="M182.5,93.5h3.4v11h-3.4V93.5z M185.4,95.9v0.5H183v-0.5l1.2-1.2L185.4,95.9z"/>
		<path id="Rectangle_6_" class="st0" d="M191.4,93.5h3.4v11h-3.4V93.5z M194.3,95.9v0.5h-2.4v-0.5l1.2-1.2L194.3,95.9z"/>
		<rect id="Rectangle_7_" x="299" y="89.7" class="st1" width="28.8" height="55.4"/>
		<path id="Rectangle_8_" class="st0" d="M302.8,96h3.4v9.8h-3.4V96z M305.7,98.4v0.5h-2.4v-0.5l1.2-1.2L305.7,98.4z"/>
		<path id="Rectangle_9_" class="st0" d="M311.7,96h3.4v9.8h-3.4V96z M314.6,98.4v0.5h-2.4v-0.5l1.2-1.2L314.6,98.4z"/>
		<path id="Rectangle_10_" class="st0" d="M320.6,96h3.4v9.8h-3.4V96z M323.5,98.4v0.5h-2.4v-0.5l1.2-1.2L323.5,98.4z"/>
	</g>
	<path id="Path_58_" class="st1" d="M284.9,114.9h-21.5"/>
	<path id="Rectangle_11_" class="st0" d="M172.4,111.2h3.4v11h-3.4V111.2z M175.3,113.6v0.5h-2.4v-0.5l1.2-1.2L175.3,113.6z"/>
	<path id="Rectangle_12_" class="st0" d="M182.5,111.2h3.4v11h-3.4V111.2z M185.4,113.6v0.5H183v-0.5l1.2-1.2L185.4,113.6z"/>
	<path id="Rectangle_13_" class="st0" d="M191.4,111.2h3.4v11h-3.4V111.2z M194.3,119.4v0.5l-1.2,1.2l-1.2-1.2v-0.5H194.3z"/>
	<path id="Rectangle_14_" class="st0" d="M172.4,130.2h3.4v9.8h-3.4V130.2z M175.3,132.6v0.5h-2.4v-0.5l1.2-1.2L175.3,132.6z"/>
	<path id="Rectangle_15_" class="st0" d="M182.5,130.2h3.4v9.8h-3.4V130.2z M185.4,137.1v0.5l-1.2,1.2l-1.2-1.2v-0.5H185.4z"/>
	<path id="Rectangle_16_" class="st0" d="M191.4,130.2h3.4v9.8h-3.4V130.2z M194.3,137.1v0.5l-1.2,1.2l-1.2-1.2v-0.5H194.3z"/>
	<path id="Rectangle_17_" class="st0" d="M302.8,115h3.4v9.8h-3.4V115z M305.7,117.4v0.5h-2.4v-0.5l1.2-1.2L305.7,117.4z"/>
	<path id="Rectangle_18_" class="st0" d="M311.7,115h3.4v9.8h-3.4V115z M314.6,117.4v0.5h-2.4v-0.5l1.2-1.2L314.6,117.4z"/>
	<path id="Rectangle_19_" class="st0" d="M320.6,115h3.4v9.8h-3.4V115z M323.5,117.4v0.5h-2.4v-0.5l1.2-1.2L323.5,117.4z"/>
	<path id="Rectangle_20_" class="st0" d="M302.8,131.5h3.4v9.8h-3.4V131.5z M305.7,133.9v0.5h-2.4v-0.5l1.2-1.2L305.7,133.9z"/>
	<path id="Rectangle_21_" class="st0" d="M311.7,131.5h3.4v9.8h-3.4V131.5z M314.6,138.4v0.5l-1.2,1.2l-1.2-1.2v-0.5H314.6z"/>
	<path id="Rectangle_22_" class="st0" d="M320.6,131.5h3.4v9.8h-3.4V131.5z M323.5,133.9v0.5h-2.4v-0.5l1.2-1.2L323.5,133.9z"/>
</g>
<path id="Path_59_" class="st1" d="M1762.9,147.2c1.2,0,108.9,0,162.6,0"/>
<g id="Group_2_" transform="translate(1944.000000, 29.000000)">
	<path id="Rectangle_23_" class="st1" d="M255,73v43h37.9V73L274,71L255,73z"/>
	<path id="Rectangle-Copy" class="st1" d="M309.4,73.5v43h37.9v-43l-18.9-2L309.4,73.5z"/>
	<path id="Path-2" class="st5" d="M442,117.7V87.6h-7.5V53.8h-3.9V33.4h-3.2v-6.2V24L407.2,7.9l-18.4,16.2v9.3h-2.3v5.3v15l-3.3,3.2
		l-1.2-0.6v-3.4h1.2v-2.4l-1.2-0.3V41h-39.5l-4.6,4.5v7.4h-4l-6.2-5.3l-6.1,5.3h-5.5V57h-35v-4.1h-6.5l-5.5-5.3l-6,5.3h-5.9V57
		h-19.5c-11.4-10.7-22.9-16.1-34.8-16.1c-17.7,0-48.6,15.4-46.9,46.6c0.6,8.1,2.5,15.1,5.6,20.9v9.2L442,117.7L442,117.7z"/>
	<rect id="Rectangle_24_" x="403.2" y="36.9" class="st1" width="9.9" height="49.4"/>
	<polyline id="Path-3" class="st5" points="161.7,108.5 169.3,108.5 182.8,88 202.7,88 219.7,61.6 236.6,61.6 237.7,57 	"/>
	<path id="Path-4" class="st5" d="M274,69.8v47.7"/>
	<path id="Path-5" class="st5" d="M328.3,71.3v46.3"/>
	<polygon id="Path-6" class="st5" points="255.2,73.1 261.8,94.4 265.6,94.4 274,117.6 281.7,94.4 285.7,94.4 293.4,73.1 274,69.8 	
		"/>
	<polygon id="Path-6-Copy" class="st5" points="309.4,73.1 316,94.4 319.8,94.4 328.1,117.6 335.8,94.4 339.9,94.4 347.5,73.1 
		328.1,69.8 	"/>
	<polyline id="Path-7" class="st5" points="237.7,62.8 237.7,117.6 202.8,117.6 202.8,88 182.8,88 	"/>
	<path id="Path-8" class="st5" d="M257.2,57v14.3"/>
	<path id="Path-9" class="st5" d="M281.1,57v14.3"/>
	<path id="Path-10" class="st5" d="M316.1,57v14.3"/>
	<path id="Path-11" class="st5" d="M337.9,52.9v16.9"/>
	<path id="Path-12" class="st5" d="M382,56.3V118"/>
</g>
<path id="Path_30_" class="st1" d="M0,146c1474.5,0,1661.5,0,2398.8,0"/>
</svg>
