<svg width="256" height="50" viewBox="0 0 256 50" fill="none" xmlns="http://www.w3.org/2000/svg">
<g clip-path="url(#clip0)">
<path d="M122.4 8.80005V7.60005C122.4 3.90005 119.3 0.800049 115.6 0.800049H6.8C3.1 0.800049 0 3.80005 0 7.60005V8.80005V33.9001V35.1C0 38.8 3.1 41.9001 6.8 41.9001H10C10.3 45.8001 13.6 49 17.7 49C21.8 49 25.1 45.9001 25.4 41.9001H31.5C31.8 45.8001 35.1 49 39.2 49C43.3 49 46.6 45.9001 46.8 41.9001H53.9C54.2 45.8001 57.5 49 61.6 49C65.7 49 69 45.9001 69.2 41.9001H75.8C76.1 45.8001 79.4 49 83.5 49C87.6 49 90.9 45.9001 91.1 41.9001H97.2C97.5 45.8001 100.8 49 104.9 49C109 49 112.3 45.9001 112.5 41.9001H115.7C119.5 41.9001 122.5 38.9 122.5 35.1V33.9001H132.3V8.80005H122.4ZM125.7 32.4001H122.3V10.3H125.7V32.4001ZM130.6 32.4001H127.2V10.3H130.6V32.4001Z" fill="#FDB743"/>
<path d="M35.4001 23.8H13.6001V7H35.4001V23.8ZM15.2001 22.3H34.0001V8.5H15.2001V22.3Z" fill="white"/>
<path d="M59.7 23.8H38V7H59.8L59.7 23.8ZM39.5 22.3H58.3V8.5H39.5V22.3Z" fill="white"/>
<path d="M84.1 23.8H62.3V7H84.1V23.8ZM63.8 22.3H82.6V8.5H63.8V22.3Z" fill="white"/>
<path d="M108.4 23.8H86.6001V7H108.4V23.8ZM88.1001 22.3H106.9V8.5H88.1001V22.3Z" fill="white"/>
<path d="M255.4 8.60005V7.40005C255.4 3.80005 252.3 0.800049 248.6 0.800049H139.8C136 0.800049 133 3.70005 133 7.40005V8.60005V32.9001V34.1C133 37.7 136.1 40.7001 139.8 40.7001H143C143.3 44.5001 146.6 47.6 150.7 47.6C154.8 47.6 158.1 44.6001 158.4 40.7001H164.5C164.8 44.5001 168.1 47.6 172.2 47.6C176.3 47.6 179.6 44.6001 179.8 40.7001H186.9C187.2 44.5001 190.5 47.6 194.6 47.6C198.7 47.6 202 44.6001 202.2 40.7001H208.8C209.1 44.5001 212.4 47.6 216.5 47.6C220.6 47.6 223.9 44.6001 224.1 40.7001H230.2C230.5 44.5001 233.8 47.6 237.9 47.6C242 47.6 245.3 44.6001 245.5 40.7001H248.7C252.5 40.7001 255.5 37.8 255.5 34.1V32.9001L255.4 8.60005Z" fill="#FDB743"/>
<path d="M169.4 23.8H147.6V7H169.4V23.8ZM149.2 22.3H168V8.5H149.2V22.3Z" fill="white"/>
<path d="M193.7 23.8H172V7H193.8L193.7 23.8ZM173.5 22.3H192.3V8.5H173.5V22.3Z" fill="white"/>
<path d="M218.1 23.8H196.3V7H218.1V23.8ZM197.8 22.3H216.6V8.5H197.8V22.3Z" fill="white"/>
<path d="M242.4 23.8H220.6V7H242.4V23.8ZM222.1 22.3H240.9V8.5H222.1V22.3Z" fill="white"/>
<path d="M122.2 8.40005V7.10005C122.2 3.30005 119.1 0.300049 115.4 0.300049H6.6999C2.8999 0.300049 -0.100098 3.40005 -0.100098 7.10005V8.40005V33.8V35.1C-0.100098 38.9 2.9999 41.9001 6.6999 41.9001H9.8999C10.1999 45.9001 13.4999 49.1 17.5999 49.1C21.6999 49.1 24.9999 45.9001 25.2999 41.9001H31.3999C31.6999 45.9001 34.9999 49.1 39.0999 49.1C43.1999 49.1 46.4999 45.9001 46.6999 41.9001H53.7999C54.0999 45.9001 57.3999 49.1 61.4999 49.1C65.5999 49.1 68.8999 45.9001 69.0999 41.9001H75.6999C75.9999 45.9001 79.2999 49.1 83.3999 49.1C87.4999 49.1 90.7999 45.9001 90.9999 41.9001H97.0999C97.3999 45.9001 100.7 49.1 104.8 49.1C108.9 49.1 112.2 45.9001 112.4 41.9001H115.6C119.4 41.9001 122.4 38.8 122.4 35.1V33.8H132.2V8.40005H122.2ZM17.4999 47.5C14.2999 47.5 11.5999 45.0001 11.2999 41.9001H23.5999C23.2999 45.0001 20.6999 47.5 17.4999 47.5ZM38.8999 47.5C35.6999 47.5 32.9999 45.0001 32.6999 41.9001H44.9999C44.6999 45.0001 42.0999 47.5 38.8999 47.5ZM61.2999 47.5C58.0999 47.5 55.3999 45.0001 55.0999 41.9001H67.3999C67.1999 45.0001 64.4999 47.5 61.2999 47.5ZM83.0999 47.5C79.8999 47.5 77.1999 45.0001 76.8999 41.9001H89.1999C88.9999 45.0001 86.3999 47.5 83.0999 47.5ZM104.5 47.5C101.3 47.5 98.5999 45.0001 98.2999 41.9001H110.6C110.4 45.0001 107.8 47.5 104.5 47.5ZM120.7 8.40005V35C120.7 37.9 118.3 40.3 115.4 40.3H6.6999C3.7999 40.3 1.3999 37.9 1.3999 35V7.10005C1.3999 4.20005 3.7999 1.80005 6.6999 1.80005H115.4C118.3 1.80005 120.7 4.20005 120.7 7.10005V8.40005ZM125.6 32.2001H122.2V9.90005H125.6V32.2001ZM130.4 32.2001H127V9.90005H130.4V32.2001Z" fill="white"/>
<path d="M255.2 8.40005V7.10005C255.2 3.30005 252.1 0.300049 248.4 0.300049H139.7C135.9 0.300049 132.9 3.40005 132.9 7.10005V8.40005H123V33.8H132.8V35.1C132.8 38.9 135.9 41.9001 139.6 41.9001H142.8C143.1 45.9001 146.4 49.1 150.5 49.1C154.6 49.1 157.9 45.9001 158.2 41.9001H164.3C164.6 45.9001 167.9 49.1 172 49.1C176.1 49.1 179.4 45.9001 179.6 41.9001H186.7C187 45.9001 190.3 49.1 194.4 49.1C198.5 49.1 201.8 45.9001 202 41.9001H208.6C208.9 45.9001 212.2 49.1 216.3 49.1C220.4 49.1 223.7 45.9001 223.9 41.9001H230C230.3 45.9001 233.6 49.1 237.7 49.1C241.8 49.1 245.1 45.9001 245.3 41.9001H248.5C252.3 41.9001 255.3 38.8 255.3 35.1V33.8L255.2 8.40005ZM127.9 32.2001H124.5V9.90005H127.9V32.2001ZM129.4 32.2001V9.90005H132.8V32.2001H129.4ZM150.5 47.5C147.3 47.5 144.6 45.0001 144.3 41.9001H156.6C156.3 45.0001 153.7 47.5 150.5 47.5ZM171.9 47.5C168.7 47.5 166 45.0001 165.7 41.9001H178C177.7 45.0001 175.1 47.5 171.9 47.5ZM194.3 47.5C191.1 47.5 188.4 45.0001 188.1 41.9001H200.4C200.2 45.0001 197.5 47.5 194.3 47.5ZM216.1 47.5C212.9 47.5 210.2 45.0001 209.9 41.9001H222.2C222 45.0001 219.4 47.5 216.1 47.5ZM237.5 47.5C234.3 47.5 231.6 45.0001 231.3 41.9001H243.6C243.4 45.0001 240.8 47.5 237.5 47.5ZM253.7 8.40005V35C253.7 37.9 251.3 40.3 248.4 40.3H139.7C136.8 40.3 134.4 37.9 134.4 35V7.10005C134.4 4.20005 136.8 1.80005 139.7 1.80005H248.4C251.3 1.80005 253.7 4.20005 253.7 7.10005V8.40005Z" fill="white"/>
<path d="M127.3 9.90002H124V32.5H127.3V9.90002Z" fill="#FDB743"/>
<path d="M132.3 9.80005H129V32.4001H132.3V9.80005Z" fill="#FDB743"/>
</g>
<defs>
<clipPath id="clip0">
<rect width="255.7" height="49.8" fill="white"/>
</clipPath>
</defs>
</svg>
