<svg width="99" height="58" viewBox="0 0 99 58" fill="none" xmlns="http://www.w3.org/2000/svg">
<path d="M97.3999 44C97.3999 46 95.3999 47.8 94.3999 48.5C92.8999 48.5 89.8999 49 89.8999 51C89.8999 53.5 86.8999 55 83.8999 56.5C81.5999 57.7 80.1999 56.7 78.6999 55.8C78.2999 55.5 77.7999 55.2 77.3999 55C75.7999 54.2 74.3999 51 73.8999 49.5H73.7999L73.0999 52H55.8999L55.1999 49H31.8999C31.8999 49.2 31.8999 49.3 31.8999 49.5C31.8999 53.6 28.2999 57 23.8999 57C19.4999 57 15.8999 53.6 15.8999 49.5C15.8999 49.3 15.8999 49.2 15.8999 49H6.8999C3.5999 49 0.899902 46.3 0.899902 43V16C0.899902 12.7 3.5999 10 6.8999 10H66.8999L75.8999 8.5C76.6999 8.2 78.7999 7.5 80.3999 7.5C81.9999 7.5 82.0999 9.2 81.8999 10L83.8999 22.5L85.3999 28L93.3999 29.5L95.8999 32.5C96.3999 35.5 97.3999 42 97.3999 44Z" fill="#FDB743"/>
<path d="M60.7001 15.7C58.5001 15.7 56.8 17.5 56.8 19.6V42.4C56.8 44.6 58.6001 46.2999 60.7001 46.2999H67.9001C70.1001 46.2999 71.8001 44.5 71.8001 42.4V19.6C71.8001 17.4 70.0001 15.7 67.9001 15.7H60.7001V15.7ZM58.3 19.6C58.3 18.3 59.4 17.3 60.6 17.3H67.8001C69.1001 17.3 70.1 18.4 70.1 19.6V42.4C70.1 43.7 69.0001 44.7 67.8001 44.7H60.6C59.3 44.7 58.3 43.7 58.3 42.4V19.6Z" fill="white"/>
<path d="M48.0999 26.2C48.8999 26.2 49.6999 25.9 50.2999 25.3C50.8999 24.7 51.1999 23.9 51.1999 23.1V18.9C51.1999 17.2 49.7999 15.8 48.0999 15.8H45.4999C44.6999 15.8 43.8999 16.1 43.2999 16.7C42.6999 17.3 42.3999 18.1 42.3999 18.9V23C42.3999 23.8 42.6999 24.6 43.2999 25.2C43.8999 25.8 44.6999 26.1 45.4999 26.1H48.0999V26.2ZM49.6999 23C49.6999 23.9 48.9999 24.6 48.0999 24.6H45.4999C45.0999 24.6 44.6999 24.4 44.3999 24.1C44.0999 23.8 43.8999 23.4 43.8999 23V18.8C43.8999 18.4 44.0999 18 44.3999 17.7C44.6999 17.4 45.0999 17.2 45.4999 17.2H48.0999C48.9999 17.2 49.6999 17.9 49.6999 18.8V23Z" fill="white"/>
<path d="M37 26.2C37.8 26.2 38.6001 25.9 39.2001 25.3C39.8001 24.7 40.1 23.9 40.1 23.1V18.9C40.1 17.2 38.7 15.8 37 15.8H34.4001C33.6001 15.8 32.8001 16.1 32.2001 16.7C31.6001 17.3 31.3 18.1 31.3 18.9V23C31.3 23.8 31.6001 24.6 32.2001 25.2C32.8001 25.8 33.6001 26.1 34.4001 26.1H37V26.2ZM38.6 23C38.6 23.9 37.9 24.6 37 24.6H34.4001C34.0001 24.6 33.6 24.4 33.3 24.1C33 23.8 32.8 23.4 32.8 23V18.8C32.8 18.4 33 18 33.3 17.7C33.6 17.4 34.0001 17.2 34.4001 17.2H37C37.9 17.2 38.6 17.9 38.6 18.8V23Z" fill="white"/>
<path d="M25.9 26.2C26.7 26.2 27.5 25.9 28.1 25.3C28.7 24.7 29 23.9 29 23.1V18.9C29 17.2 27.6 15.8 25.9 15.8H23.2999C22.4999 15.8 21.7 16.1 21.1 16.7C20.5 17.3 20.2 18.1 20.2 18.9V23C20.2 23.8 20.5 24.6 21.1 25.2C21.7 25.8 22.4999 26.1 23.2999 26.1H25.9V26.2ZM27.5 23C27.5 23.9 26.8 24.6 25.9 24.6H23.2999C22.8999 24.6 22.5 24.4 22.2 24.1C21.9 23.8 21.7 23.4 21.7 23V18.8C21.7 18.4 21.9 18 22.2 17.7C22.5 17.4 22.8999 17.2 23.2999 17.2H25.9C26.8 17.2 27.5 17.9 27.5 18.8V23Z" fill="white"/>
<path d="M14.9 26.2C15.7 26.2 16.5 25.9 17.1 25.3C17.7 24.7 18 23.9 18 23.1V18.9C18 17.2 16.6 15.8 14.9 15.8H12.3C11.5 15.8 10.7 16.1 10.1 16.7C9.49995 17.3 9.19995 18.1 9.19995 18.9V23C9.19995 23.8 9.49995 24.6 10.1 25.2C10.7 25.8 11.5 26.1 12.3 26.1H14.9V26.2ZM16.4 23C16.4 23.9 15.7 24.6 14.8 24.6H12.2C11.8 24.6 11.4 24.4 11.1 24.1C10.8 23.8 10.6 23.4 10.6 23V18.8C10.6 18.4 10.8 18 11.1 17.7C11.4 17.4 11.8 17.2 12.2 17.2H14.8C15.7 17.2 16.4 17.9 16.4 18.8V23Z" fill="white"/>
<path d="M82.3 46.2C80.6 46.2 79.3 47.6 79.3 49.2C79.3 50.4 80 51.5 81.2 52C82.3 52.5 83.6 52.1999 84.5 51.2999C85.4 50.3999 85.6 49.1 85.2 48C84.6 47 83.5 46.2 82.3 46.2ZM82.3 50.7C81.5 50.7 80.8 50.0999 80.8 49.2999C80.8 48.6999 81.2 48.2 81.7 48C82.2 47.8 82.9 47.8999 83.3 48.2999C83.7 48.6999 83.8 49.3 83.6 49.9C83.4 50.4 82.9 50.7 82.3 50.7Z" fill="white"/>
<path d="M23.8999 46.2C22.1999 46.2 20.8999 47.6 20.8999 49.2C20.8999 50.4 21.5999 51.5 22.7999 52C23.8999 52.5 25.1999 52.1999 26.0999 51.2999C26.9999 50.3999 27.1999 49.1 26.7999 48C26.1999 47 25.0999 46.2 23.8999 46.2ZM23.8999 50.7C23.0999 50.7 22.4999 50.0999 22.4999 49.2999C22.4999 48.6999 22.8999 48.2 23.3999 48C23.8999 47.8 24.5999 47.8999 24.9999 48.2999C25.3999 48.6999 25.4999 49.3 25.2999 49.9C24.9999 50.4 24.4999 50.7 23.8999 50.7Z" fill="white"/>
<path d="M0.5 43.7C0.7 47 3.4 49.6 6.7 49.6H15.6C15.8 54.1 19.5 57.6 24 57.6C28.5 57.6 32.2 54.1 32.4 49.6C41.3 49.6 50 49.6 53.7 49.6C54.3 49.6 54.8 50.1 54.8 50.7C54.8 52.2 56 53.4 57.5 53.4H71.5C73 53.4 74.2 52.2 74.2 50.7V50.6C74.9 54.8 78.7 57.9 83 57.6C87.3 57.3 90.7 53.9 90.9 49.6H91.5C94.9 49.6 97.6 46.9 97.7 43.5V34.3C97.7 33 97.3 31.8 96.5 30.7C95.9 30 95.2 29.4 94.5 29C94.6 27.7 95.2 27.2 96.3 26.3C97.2 25.6 97.8 24.5 97.8 23.3C97.8 23.3 97.8 23.3 97.8 23.2V20C97.8 19.4 97.6 18.8 97.2 18.4C96.8 18 96.2 17.7 95.6 17.7C95 17.7 94.4 17.9 94 18.4C93.6 18.8 93.3 19.4 93.4 20V23.3C93.4 24.3 94.1 25.2 95 25.4C94 26.1 93.4 27.2 93.1 28.4C92.7 28.3 92.3 28.2 91.8 28.1C91.4 28 90.8 28 90.1 27.9C88.9 27.8 87 27.5 86.4 27.4C85 26 84.2 19.7 83.8 17L83.6 15.7C83.4 14.2 83.2 12.7 83.1 11.6C83 11.1 82.9 10.6 82.9 10.3C82.7 9.3 82.3 8.4 81.6 7.7C80.9 6.9 79.9 6.5 78.9 6.5C77.9 6.5 76.9 6.9 76.2 7.6C75.3 8.4 74 8.8 72.8 8.8H6.8C3.4 8.8 0.7 11.5 0.6 14.9L0.5 43.7ZM95.8 23.3C95.8 23.5 95.7 23.7 95.6 23.8C95.5 24 95.3 24 95.1 24C94.9 24 94.7 23.9 94.6 23.8C94.5 23.7 94.4 23.5 94.4 23.3V20C94.4 19.8 94.5 19.6 94.6 19.5C94.7 19.4 94.9 19.3 95.1 19.3C95.3 19.3 95.5 19.4 95.6 19.5C95.7 19.6 95.8 19.8 95.8 20V23.3ZM82.3 17.2C82.9 22.1 83.5 25.5 84.2 27.4H80.3C79.3 27.4 78.2 26.2 78.2 24.7L78 15.4C78 14.5 78.3 13.7 78.9 13.1C79.2 12.8 79.6 12.6 80.1 12.5H81.8C81.9 13.5 82.1 14.7 82.2 15.9L82.3 17.2ZM95.2 32.1C95.6 32.8 95.8 33.5 95.8 34.3V38.4C95.1 38.1 94.7 37.4 94.7 36.7V32.9C94.7 32.6 94.9 32.3 95.2 32.1ZM82.3 56.1C78.5 56.1 75.5 53 75.5 49.3C75.5 46.5 77.2 44.1 79.7 43C82.3 41.9 85.2 42.5 87.1 44.5C89.1 46.4 89.6 49.4 88.6 51.9C87.5 54.4 85 56.1 82.3 56.1ZM23.9 56.1C20.1 56.1 17.1 53 17.1 49.3C17.1 46.5 18.8 44.1 21.3 43C23.8 41.9 26.8 42.5 28.7 44.5C30.6 46.4 31.2 49.4 30.2 51.9C29.1 54.4 26.6 56.1 23.9 56.1ZM6.7 48.1C4.5 48.1 2.6 46.6 2.2 44.4C4.6 44 6.4 41.9 6.4 39.4V37.6C6.4 35.1 4.6 33 2.1 32.6V14.8C2.1 12.3 4.2 10.2 6.7 10.2H72.7C74.3 10.2 75.9 9.7 77.2 8.6C77.7 8.2 78.3 7.9 78.9 7.9C79.5 7.9 80.1 8.2 80.5 8.6C81 9.2 81.3 9.8 81.4 10.5C81.4 10.6 81.4 10.7 81.5 10.8H80C79.1 10.8 78.3 11.2 77.7 11.8C76.8 12.7 76.4 14 76.4 15.2L76.6 24.5C76.6 26.8 78.4 28.7 80.3 28.7H85.3C86.7 29 88.1 29.2 89.5 29.3C90.2 29.4 90.8 29.4 91.2 29.5C91.8 29.6 92.3 29.7 92.9 29.9C93 30 93.1 30 93.2 30C93.6 30.2 93.9 30.4 94.2 30.6C93.6 31.1 93.2 31.8 93.2 32.6V36.4C93.2 38 94.3 39.4 95.9 39.8V43.2C95.9 45.7 93.8 47.8 91.3 47.8H90.6C90 43.6 86.4 40.6 82.2 40.6C78 40.7 74.5 43.9 74 48.1C73.1 48.5 72.5 49.5 72.5 50.5C72.5 50.8 72.4 51.1 72.2 51.3C72 51.5 71.7 51.6 71.4 51.6H57.4C56.8 51.6 56.3 51.1 56.3 50.5C56.3 49.8 56 49.1 55.5 48.6C55 48.1 54.3 47.8 53.6 47.8C49.9 47.8 41.2 47.8 32.2 47.8C31.6 43.7 28.1 40.6 23.9 40.6C19.7 40.6 16.2 43.7 15.6 47.8L6.7 48.1ZM2.1 34.1C3.7 34.5 4.8 35.9 4.8 37.5V39.3C4.8 40.9 3.7 42.4 2.1 42.7V34.1V34.1Z" fill="white"/>
<path d="M7.6001 30.4C7.6001 30.8 8.0001 31.2 8.4001 31.2H52.0001C52.4001 31.2 52.8001 30.8 52.8001 30.4C52.8001 30 52.4001 29.6 52.0001 29.6H8.4001C8.0001 29.6 7.6001 29.9 7.6001 30.4Z" fill="white"/>
<path d="M7.6001 36.9C7.6001 37.3 8.0001 37.7 8.4001 37.7H52.0001C52.4001 37.7 52.8001 37.4 52.8001 36.9C52.8001 36.5 52.4001 36.1 52.0001 36.1H8.4001C8.0001 36.2 7.6001 36.5 7.6001 36.9Z" fill="white"/>
</svg>
